<svg width="81" height="98" viewBox="0 0 81 98" fill="none" xmlns="http://www.w3.org/2000/svg">
<g clip-path="url(#clip0_4032_799)">
<path d="M24.9318 85.7531C23.3675 85.7531 21.8996 85.7603 20.4292 85.7482C20.1029 85.7458 19.7718 85.6928 19.453 85.6276C16.8631 85.0922 15.6719 83.9464 15.5731 81.3679C15.4124 77.1541 15.3853 72.9329 15.4248 68.7167C15.4495 66.1116 15.7016 63.509 15.8499 60.9594C13.3341 58.7307 13.9272 57.7611 15.1851 55.8435C15.059 55.4599 14.8762 55.0185 14.7773 54.5578C14.6513 53.9741 14.5104 53.3735 14.5327 52.7874C14.5648 51.9769 15.2988 51.3305 16.1588 51.2412C16.5641 51.2002 16.9768 51.234 17.4661 51.234C17.5773 50.9518 17.7083 50.6696 17.8046 50.3777C18.9316 46.9261 21.2521 44.8179 24.9714 44.2245C26.6321 43.9592 28.2878 43.6336 29.9263 43.2501C31.3003 42.9269 32.5755 42.3431 33.5665 41.3204C33.8235 41.0575 34.0262 40.6595 34.0707 40.3025C34.2115 39.1471 34.2338 37.9773 34.3672 36.8219C34.4339 36.2454 34.2461 35.8523 33.8655 35.4253C33.1143 34.5787 32.3976 33.6911 31.76 32.76C31.33 32.1329 31.0631 31.402 30.6603 30.5916C29.0416 30.4734 28.3299 29.2094 27.7812 27.8249C27.4575 27.0048 27.1165 26.1558 27.0151 25.2947C26.9262 24.53 26.9879 23.6593 27.2944 22.967C27.5514 22.3905 27.6972 21.8888 27.6676 21.2713C27.5687 19.1415 27.586 17.0213 28.0382 14.9131C28.8884 10.9718 30.6973 7.75171 34.686 6.16457C34.7972 5.40236 34.7947 4.66427 35.0172 4.00095C35.7758 1.75049 37.523 0.546872 39.8238 0.180239C42.2111 -0.200868 44.5291 -0.00790253 46.8002 1.05099C49.19 2.16296 50.8507 6.19593 49.1134 8.73825C49.0269 8.86367 48.9651 9.00598 48.891 9.14588C49.6002 9.55111 50.3144 9.87191 50.9248 10.3254C52.7387 11.6737 53.8138 13.5165 54.2438 15.6657C54.5996 17.4386 54.7899 19.2573 54.3476 21.047C54.1301 21.9298 53.71 22.7644 53.3961 23.6255C53.275 23.956 53.1119 24.2961 53.0946 24.6362C53.0007 26.45 52.2643 28.0541 51.4734 29.6484C51.078 30.4444 50.3391 30.6277 49.5162 30.7315C49.0046 32.5429 47.8876 33.9709 46.6841 35.3578C46.474 35.6014 46.3307 35.997 46.3455 36.313C46.4197 37.794 46.4889 39.2822 46.7014 40.7488C46.8398 41.7015 47.5293 42.4517 48.3942 42.8593C49.5681 43.4117 50.8013 43.9037 52.0616 44.2101C53.8533 44.6442 55.682 44.9506 57.5133 45.1894C60.3058 45.5536 62.0901 47.0105 62.9303 49.6107C63.0168 49.8784 63.1181 50.1389 63.2046 50.4067C63.2788 50.631 63.3406 50.8601 63.3949 51.0483C63.5259 51.1134 63.6001 51.1858 63.6668 51.1785C65.5029 51.029 66.4297 52.4859 65.7995 54.2853C65.6265 54.7773 65.456 55.2694 65.2929 55.7325C66.8622 58.6728 66.8399 58.8296 64.5737 60.9956C64.633 62.0208 64.6652 63.1014 64.7665 64.1771C65.2929 69.6718 65.2113 75.1762 64.937 80.6781C64.7789 83.8475 63.7211 85.2104 59.9129 85.495C58.9021 85.5697 57.8815 85.507 56.6162 85.507C57.3601 86.4912 57.9754 87.2196 58.4968 88.0059C60.9187 91.6506 63.0317 95.4616 64.9222 99.3909C69.2074 108.294 72.257 117.607 74.5726 127.161C76.8832 136.706 78.5044 146.361 79.5918 156.111C80.3727 163.106 80.8743 170.115 81.0127 177.151C81.0226 177.633 80.9707 178.118 81.0152 178.598C81.2969 181.637 79.5621 183.562 77.2119 185.123C75.309 186.387 73.1368 187.024 70.92 187.494C67.1315 188.295 63.2911 188.743 59.4236 188.946C56.6706 189.091 53.9101 189.132 51.1547 189.221C50.999 189.226 50.8457 189.26 50.6233 189.289C50.8136 190 51.293 190.439 51.817 190.808C52.5509 191.322 53.3343 191.773 54.0881 192.258C54.6713 192.634 55.2916 192.969 55.813 193.418C57.0363 194.47 56.7818 196.259 55.2817 196.867C54.4637 197.2 53.5469 197.41 52.6646 197.456C50.4479 197.569 48.2237 197.567 46.002 197.586C45.058 197.593 44.2252 197.299 43.6148 196.539C43.291 196.134 42.9475 195.746 42.5669 195.297C42.4211 195.888 42.3173 196.39 42.1691 196.877C42.0307 197.335 41.6896 197.738 41.2077 197.629C40.9062 197.562 40.5232 197.14 40.4688 196.829C40.2637 195.644 40.1204 194.446 40.0611 193.247C39.9943 191.932 40.0462 190.613 40.0462 189.219H38.9341C38.9341 191.394 38.9341 193.514 38.9341 195.637C38.9341 195.919 38.944 196.199 38.9317 196.481C38.8946 197.326 38.6672 197.593 37.9951 197.605C37.2067 197.617 36.8978 197.345 36.8138 196.559C36.7891 196.32 36.7841 196.076 36.7644 195.837C36.7471 195.603 36.7223 195.372 36.7001 195.138C36.579 195.152 36.4678 195.131 36.4283 195.172C35.0196 196.744 33.2304 197.509 31.1076 197.576C28.965 197.646 26.8298 197.615 24.7292 197.135C23.0487 196.751 22.5693 195.251 23.753 194.035C24.146 193.633 24.6378 193.319 25.0949 192.979C26.1082 192.224 27.1535 191.505 28.1371 190.714C28.5968 190.345 28.9427 189.838 29.5111 189.204C28.0679 189.129 26.8965 189.057 25.7251 189.006C19.3492 188.741 13.1413 187.685 7.17564 185.388C4.76367 184.46 2.62847 183.152 0.789838 181.394C0.468571 181.088 0.218967 180.564 0.199197 180.13C0.0879891 177.889 -0.0751143 175.636 0.0385648 173.4C0.233796 169.551 0.513058 165.696 0.948004 161.866C1.57818 156.32 2.30474 150.782 3.11779 145.256C4.32378 137.065 6.14758 128.994 8.35444 121.005C10.7244 112.426 13.5367 104.003 17.6984 96.0622C19.3714 92.8735 21.2323 89.7981 23.6715 87.0942C24.0743 86.6479 24.4944 86.2186 24.9294 85.7531H24.9318ZM3.92837 180.219C4.4597 180.492 4.93665 180.82 5.46798 180.991C7.57352 181.671 9.66422 182.419 11.8142 182.933C16.9595 184.163 22.2134 184.515 27.497 184.496C33.9199 184.472 40.3452 184.479 46.7657 184.378C52.074 184.293 57.3823 184.136 62.6832 183.883C65.6389 183.743 68.5822 183.314 71.4241 182.45C72.514 182.12 73.6162 181.71 74.5775 181.124C75.9861 180.265 76.8066 179.037 76.8091 177.267C76.8165 171.473 76.5051 165.699 75.8552 159.943C75.2151 154.277 74.5948 148.604 73.757 142.962C72.6573 135.569 71.1152 128.254 69.1036 121.042C66.6274 112.158 63.6198 103.465 59.3247 95.2397C57.4984 91.747 55.7957 88.17 52.8994 85.3165C49.405 84.7882 45.834 84.5084 42.4582 82.8875C42.2827 83.9706 42.132 84.9088 41.9738 85.8954C40.7876 86.1125 39.6829 86.0787 38.6747 85.4612C38.5289 84.9547 38.3979 84.5012 38.2669 84.0501C34.7527 83.3989 31.4288 83.9561 28.4312 84.8461C27.6305 86.1245 27.0992 87.2847 26.2886 88.211C23.7456 91.1175 21.9342 94.4389 20.2982 97.864C17.2684 104.213 14.9552 110.817 13.0672 117.563C10.7343 125.895 8.89565 134.337 7.5834 142.873C6.59489 149.304 5.6558 155.754 5.01821 162.223C4.43251 168.171 4.27683 174.158 3.92837 180.217V180.219ZM61.7565 51.8684C61.4797 48.916 60.1798 47.3892 57.3106 46.7548C55.8328 46.4268 54.3303 46.188 52.8376 45.925C50.9718 45.5946 49.1331 45.1797 47.4947 44.1884C45.7598 43.1367 44.7491 41.6895 44.8949 39.6127C44.9567 38.713 45.0061 37.8109 45.0679 36.805C41.8947 38.6913 38.7661 38.9759 35.5855 37.0197C35.5855 38.2306 35.5584 39.3112 35.593 40.3894C35.63 41.5978 35.0567 42.4276 34.0731 43.0981C32.6966 44.0364 31.1619 44.596 29.5507 44.953C28.0704 45.2834 26.5654 45.4981 25.0727 45.7779C23.2019 46.1253 21.5042 46.7765 20.4465 48.4553C19.7545 49.5528 19.2454 50.7251 19.065 52.0517C20.7603 53.5231 22.4606 54.9558 24.7564 55.3683C27.0893 53.3349 28.7351 52.7247 31.5944 52.7536C33.7642 52.7753 35.7141 53.5062 37.5008 54.6109C38.7933 55.4093 39.9251 55.554 41.2176 54.6109C42.5867 53.6123 44.2202 53.1106 45.8859 52.8139C49.3803 52.1916 52.63 52.4497 54.9407 55.5227C57.7184 55.2356 59.6509 53.4965 61.754 51.8684H61.7565ZM51.2436 70.9888C51.3524 70.7934 51.4463 70.6656 51.5006 70.5233C52.205 68.7263 52.9019 66.9269 53.6012 65.1275C54.6342 62.4742 54.8888 59.7582 54.3278 56.9627C54.2141 56.4007 53.9349 56.0461 53.4455 55.7446C51.4438 54.5048 49.2715 54.3697 47.0227 54.7436C44.8059 55.1102 42.7572 55.9448 40.8519 57.0905C39.9029 57.6622 38.9935 57.6525 38.0395 57.2232C37.5181 56.9892 37.0214 56.6997 36.5024 56.461C35.5732 56.0316 34.6638 55.5444 33.7 55.2139C31.7032 54.5289 29.7311 54.6278 27.8776 55.7036C26.9163 56.2632 26.1971 57.0543 26.1329 58.188C26.0217 60.1128 25.9055 62.0569 26.6691 63.8973C27.5292 65.9717 28.4485 68.022 29.3307 70.0578C30.0054 69.8045 30.554 69.5512 31.1298 69.3993C31.7056 69.2449 32.3086 69.1918 32.8993 69.0929C32.3655 66.0803 32.3778 66.0296 34.0608 64.469C34.0978 63.2075 34.9628 62.2861 35.551 61.2561C35.8895 60.6628 36.5543 60.5494 37.1894 60.7158C38.0816 60.9498 38.9514 61.2658 39.8584 61.5576C40.8865 60.4577 41.9466 60.1852 43.4912 60.6579C45.1964 61.1814 45.1618 62.5008 45.5621 63.6827C45.9056 63.6996 46.1923 63.7092 46.4765 63.7285C46.7632 63.7478 47.0523 63.7671 47.3365 63.8057C48.2015 63.9263 48.713 64.4304 48.5944 65.2722C48.456 66.2491 48.6191 67.296 47.9889 68.1836C47.8901 68.3235 47.9222 68.5502 47.8777 68.8252C49.4025 68.9675 50.3218 69.942 51.2436 70.9888ZM44.025 14.7829C41.9442 17.2528 39.5273 19.1511 36.794 20.7021C37.0486 20.9915 37.2438 21.2183 37.4736 21.4812C36.3269 21.6838 35.2519 21.7923 34.2288 22.0746C33.1736 22.364 32.1653 22.8223 31.0458 23.242C31.1051 23.6882 31.1372 24.12 31.2213 24.5445C31.5005 25.9628 31.8267 27.3739 32.0837 28.797C32.5261 31.25 33.8334 33.1845 35.761 34.7524C37.5651 36.2213 39.6162 36.7761 41.8601 35.9849C42.8808 35.6255 43.8841 35.0611 44.7145 34.3809C46.6273 32.8131 47.5416 30.6712 47.9 28.2977C48.2212 26.1606 48.4955 24.0187 48.7946 21.8406C46.8027 19.853 45.0679 17.646 44.0275 14.7853L44.025 14.7829ZM17.5031 61.741C17.429 62.9132 17.2906 63.948 17.3129 64.9828C17.4241 70.4389 17.56 75.895 17.7181 81.3511C17.7577 82.7187 18.4027 83.4206 19.7965 83.6039C20.8913 83.7486 22.0231 83.8982 23.108 83.7848C25.2259 83.5653 27.3413 83.2469 29.4271 82.8176C32.148 82.2556 34.8516 81.9589 37.6219 82.4124C38.4176 82.5426 39.2653 82.4895 40.0734 82.3979C41.4277 82.2459 42.2284 81.4789 42.478 80.1812C42.5793 79.6505 42.5768 79.103 42.6262 78.5096C40.5281 79.226 38.6079 79.3032 36.7001 78.3263V76.8694C32.4915 80.0775 28.0036 80.859 23.0537 79.144C21.9268 73.2803 23.7357 67.6433 23.7926 61.8061C21.729 62.2523 19.7026 62.3319 17.5056 61.741H17.5031ZM52.6053 22.7813C52.6671 22.6414 52.7585 22.5015 52.7931 22.3471C53.3319 19.9013 53.2528 17.4796 52.4274 15.1037C51.817 13.3477 50.6802 12.0548 48.8712 11.3988C47.8283 12.5831 47.3439 12.7085 46.002 11.9342C45.1939 11.4687 44.502 10.815 43.721 10.2989C42.7745 9.67171 41.8552 8.93845 40.8098 8.53804C36.6853 6.95814 32.7362 8.45121 30.6726 12.2574C29.741 13.9797 29.217 15.837 28.8785 17.7377C28.6338 19.1101 28.5177 20.5043 28.32 22.089C29.0193 21.8116 29.4988 21.6138 29.9856 21.4305C30.4823 21.2424 30.9766 21.0398 31.4857 20.8878C36.6062 19.3682 40.9952 16.7342 44.5267 12.776C44.6478 12.641 44.8405 12.5686 45.0259 12.448C45.7302 13.2078 44.6651 13.5069 44.7219 14.1847C46.4765 16.5437 48.068 19.2066 50.9545 20.7166C51.0261 20.7552 51.0879 20.8106 51.1497 20.8637C51.7848 21.3847 51.7601 21.8285 51.0756 22.2892C50.9075 22.4026 50.7568 22.5425 50.4578 22.7813H52.6078H52.6053ZM43.8718 78.5699C43.6419 79.9062 43.4319 81.1412 43.2144 82.4124C44.156 82.5281 45.1395 82.5957 46.1009 82.779C49.2938 83.3844 52.4941 83.9175 55.7562 83.9127C57.5602 83.9127 59.3692 83.9778 61.1288 83.4037C62.095 83.0901 62.6906 82.5884 62.7425 81.544C62.7771 80.8252 62.9452 80.1088 62.955 79.39C63.0242 75.0966 63.0836 70.8007 63.1033 66.5048C63.1107 64.9538 63.0094 63.4005 62.9526 61.753C60.7655 62.3271 58.7069 62.2571 56.6014 61.6686C56.6014 61.9629 56.5841 62.1582 56.6038 62.3512C56.9572 65.8632 57.3872 69.3727 57.6418 72.8919C57.7703 74.6793 57.5775 76.4907 57.5306 78.2901C57.5133 78.939 57.1969 79.3442 56.5248 79.4576C55.556 79.624 54.5947 79.87 53.6185 79.9472C50.2526 80.2126 46.9979 79.6216 43.8718 78.5699ZM35.8376 5.72799C37.8567 5.37341 39.8238 4.99472 41.6353 5.7497C43.422 6.49261 45.0728 7.54427 46.8398 8.49221C47.7467 7.33201 48.2583 6.00537 47.6084 4.45442C47.0919 3.21944 46.1058 2.47411 44.8405 2.0713C43.3404 1.59371 41.791 1.42245 40.2217 1.55994C38 1.75532 36.2454 3.36416 35.8401 5.72799H35.8376ZM56.1837 59.1142C57.2785 59.3578 58.3436 59.6618 59.4335 59.821C60.9409 60.0405 62.3867 59.7269 63.7063 58.9864C64.68 58.4388 64.7887 58.0626 64.1561 57.1604C63.6 56.3645 63.5778 55.6167 63.9905 54.787C64.1709 54.4276 64.3464 54.0537 64.4304 53.6678C64.6009 52.8814 64.2624 52.5269 63.2491 52.4014C61.6799 55.4672 58.702 56.3645 55.4769 56.8734C55.7191 57.6404 55.9242 58.2893 56.1837 59.1166V59.1142ZM17.1349 52.2157C16.0723 53.0189 15.9166 53.5544 16.4108 54.594C16.8112 55.4358 17.0039 56.1932 16.3664 57.0591C15.6274 58.0626 15.8078 58.5667 16.9768 59.1166C19.2998 60.2093 21.6376 60.0911 23.9927 59.1528C24.0521 58.3207 24.1064 57.5416 24.1608 56.7528C21.1508 56.1522 18.551 55.1126 17.1349 52.2181V52.2157ZM36.8854 189.17C36.668 189.711 36.5741 190.012 36.4307 190.29C35.7289 191.655 34.8145 192.858 33.2452 193.293C31.1965 193.862 29.1207 194.462 27.0028 193.476C26.076 194.149 24.9244 194.491 24.3634 195.536C25.09 196.368 25.3396 196.522 26.4344 196.443C28.4015 196.298 30.3613 196.045 32.3309 195.919C33.6382 195.835 34.4438 195.172 35.0097 194.105C35.5386 193.109 36.0304 192.091 36.6235 191.134C36.967 190.579 37.1227 190.053 36.8879 189.173L36.8854 189.17ZM44.24 195.321C45.6066 195.389 46.825 195.475 48.0458 195.504C49.2789 195.533 50.5121 195.538 51.7428 195.49C52.9463 195.442 54.1548 195.854 55.5017 195.565C55.21 194.031 53.8657 193.903 52.9859 193.264C50.9718 194.566 48.9602 193.85 46.9732 193.428C44.6873 192.94 43.8223 191.03 42.7819 189.187C42.4582 189.219 42.1345 189.25 41.4598 189.315C43.3256 191.168 43.6123 193.394 44.2351 195.321H44.24ZM27.7565 78.1141C27.9246 74.2355 27.2252 70.7018 25.3841 67.1657C24.5908 70.7307 24.4549 74.151 24.1633 77.6727C25.3989 77.8246 26.5209 77.9621 27.7565 78.1141ZM56.2949 77.6485C55.9317 74.3898 55.9292 71.2204 55.1606 67.8483C53.6605 71.2469 52.892 74.4718 53.1292 78.0489C54.2265 77.9114 55.2199 77.7836 56.2949 77.6485ZM50.2156 78.225C50.4503 76.0831 50.6579 74.192 50.8655 72.2865C50.2353 72.1056 49.6249 71.9319 48.8465 71.71C49.5285 72.699 50.4726 73.425 50.0228 74.7565C49.2641 74.5321 48.6241 74.3416 47.8407 74.1076C48.1174 75.0676 48.7896 75.8612 48.1842 76.9635C47.0647 76.3412 45.9847 75.7406 44.838 75.1038C44.5267 75.2341 44.1337 75.4005 43.7433 75.5645C44.0522 76.7102 44.7021 77.458 45.8167 77.6485C47.2599 77.8946 48.7229 78.0345 50.2156 78.225ZM39.337 71.9151C38.8674 70.8224 38.519 70.0071 38.1928 69.2497C35.3656 68.8324 34.9999 69.0471 34.2066 71.4905C34.1942 71.5291 34.167 71.5605 34.1547 71.5991C33.9224 72.383 34.2263 73.0584 35.0295 73.3068C35.5608 73.4708 36.1416 73.4877 36.6927 73.5673C37.4069 72.8365 37.7875 71.8089 39.337 71.9151ZM42.5521 70.4799C43.1798 70.873 43.9039 71.3289 44.6403 71.7896C44.9616 71.6521 45.3101 71.5339 45.6264 71.3603C46.1454 71.0757 46.5136 70.6849 46.5333 70.0433C46.5531 69.38 46.6297 68.7191 46.6816 68.022C45.5004 66.4614 43.9879 66.6857 42.5496 68.502V70.4799H42.5521ZM38.3781 67.2043C38.8674 67.9158 39.2752 68.5044 39.7002 69.1195C40.3205 69.1605 40.9087 69.1991 41.6105 69.2425C41.2324 67.6336 42.7473 67.2839 43.4269 66.3384C42.8833 65.6606 42.3865 65.0431 41.9541 64.5052C41.1657 64.3749 40.7604 64.5944 40.4293 65.183C40.1475 65.6847 39.6656 66.0875 39.248 66.5096C39.028 66.7315 38.7562 66.9052 38.3781 67.1995V67.2043ZM35.4051 63.8033C35.892 64.4473 36.2973 65.0479 36.7742 65.5858C36.9645 65.8005 37.3822 66.0634 37.5774 65.9934C38.4671 65.6654 39.4852 65.4966 40.0882 64.498C39.9128 64.0493 39.7892 63.5331 39.5149 63.111C39.3246 62.8167 38.9539 62.5731 38.6079 62.4525C37.9506 62.221 37.2537 62.0907 36.3838 61.8712C36.0872 62.4525 35.7388 63.1448 35.4027 63.8033H35.4051ZM43.3404 65.511C43.7581 64.826 44.0942 64.2785 44.4253 63.7261C44.4871 63.6248 44.5143 63.5042 44.5538 63.3908C44.9888 62.1607 44.6502 61.5287 43.3577 61.1645C43.1996 61.1211 43.0266 61.1162 42.8833 61.0487C41.7489 60.5277 40.9309 60.957 40.2069 61.8736C40.4392 62.3512 40.6616 62.8095 40.9112 63.3209C42.4261 63.193 42.9871 64.1747 43.3429 65.5134L43.3404 65.511ZM30.3489 74.3151C30.4329 75.6682 30.5095 76.9128 30.5861 78.1358C33.176 78.3504 33.9051 78.0658 35.2816 76.2592C34.513 76.428 33.8804 76.5462 33.2625 76.7126C32.8054 76.8357 32.3778 76.937 32.0393 76.5028C31.6364 75.9866 31.9849 75.5959 32.3062 75.234C32.7238 74.7661 33.181 74.3295 33.6209 73.8785C33.5962 73.8109 33.5714 73.7434 33.5467 73.6759C32.5088 73.8833 31.4733 74.0907 30.3489 74.3151ZM35.121 189.182H31.5302C30.9 190.099 30.3217 190.946 29.7261 191.814C32.2493 191.99 34.1917 191.047 35.121 189.182ZM48.3053 189.214C47.7146 189.214 47.1017 189.204 46.4913 189.216C45.918 189.226 45.3249 189.11 44.7194 189.322C45.9674 191.242 48.1323 192.181 50.05 191.71C49.5014 190.926 48.9527 190.142 48.3053 189.214ZM42.9352 76.334C42.9253 76.1217 42.9104 75.8154 42.8956 75.4801C42.5645 75.3378 42.2704 75.2123 41.8947 75.0531C40.6294 76.4811 39.248 75.55 37.701 74.9711C37.9753 75.9456 38.173 76.6451 38.4003 77.4532C39.6212 77.5882 40.8568 77.8511 41.875 76.7223C42.0776 76.498 42.5225 76.4763 42.9352 76.334ZM42.2901 71.5098C41.9491 72.4626 41.4697 73.4347 42.4211 74.3416C42.8116 74.7131 43.6716 74.783 44.151 74.5346C44.7861 74.2065 44.9863 73.5987 44.7911 72.576C44.0398 72.067 43.3825 71.3555 42.2901 71.5074V71.5098ZM41.8873 70.8152C41.7959 70.5498 41.7094 70.2966 41.613 70.0216C41.183 70.0216 40.8173 70.0119 40.454 70.0264C40.3008 70.0336 40.15 70.0939 39.9622 70.1374C39.9869 70.3303 39.9844 70.4919 40.0314 70.6367C40.58 72.3468 40.4935 72.547 38.9292 73.3599C38.5931 73.5335 38.1532 73.6541 38.1483 74.1486C39.3963 74.7203 39.8658 74.7323 40.9655 74.2138C40.5652 72.9257 40.926 71.7993 41.8849 70.8152H41.8873ZM47.4823 67.1802C48.0087 65.3711 47.7319 64.5438 46.6198 64.276C45.5424 64.018 44.7911 64.5414 44.4846 65.745C45.0259 65.8391 45.6214 65.827 46.0959 66.0561C46.5976 66.2949 46.9856 66.7629 47.4799 67.1802H47.4823ZM33.7543 68.432C34.8788 67.4479 36.2528 68.42 37.1993 67.5347C36.238 66.8063 35.3508 66.1333 34.4265 65.4314C33.7173 66.2805 33.6283 67.1826 33.7568 68.432H33.7543ZM48.8193 73.3044C48.3745 72.7038 47.9321 72.1032 47.4527 71.4543C46.9263 71.7341 46.4493 71.9898 45.8958 72.2865C46.7632 73.1766 47.8159 73.1645 48.8218 73.3068L48.8193 73.3044ZM39.4383 83.9344C39.4086 84.3155 39.3814 84.6459 39.3543 84.9643H41.2794C41.3362 84.465 41.3832 84.055 41.4351 83.5798C40.711 83.7076 40.15 83.8089 39.4358 83.9344H39.4383ZM30.0622 27.234C30.0622 26.3753 30.0622 25.5166 30.0622 24.6603C30.0622 24.1127 29.783 23.874 29.1305 23.927C28.9576 25.1692 29.4765 26.2064 30.0622 27.234ZM50.9792 23.8812C50.3589 24.5469 50.0475 26.4163 50.2971 27.7936C50.7494 26.4476 51.5377 25.3453 50.9792 23.8812ZM29.8176 71.5267C29.9708 72.1008 30.0771 72.4964 30.1833 72.8968C30.9395 72.5229 31.6092 72.19 32.3506 71.8234C31.5697 71.1649 30.7764 71.5774 29.8176 71.5267ZM33.9001 73.3333C33.6481 72.8533 33.4602 72.4964 33.1909 71.9802C32.5187 72.4047 31.9528 72.7617 31.3868 73.1187C31.419 73.191 31.4536 73.2634 31.4857 73.3358H33.9001V73.3333ZM31.2633 70.2604C31.2756 70.352 31.288 70.4437 31.3003 70.5329C31.9256 70.6945 32.5508 70.8562 33.3564 71.0636C33.3194 70.4606 33.2947 70.0602 33.2576 69.4282C32.4594 69.7611 31.8613 70.0119 31.2608 70.2604H31.2633ZM45.4015 74.701C46.0638 75.0676 46.6075 75.4101 47.549 75.5404C46.9238 74.7637 46.4617 74.1896 45.9699 73.5818C45.7895 73.7748 45.6808 73.8471 45.6412 73.946C45.5522 74.1607 45.4979 74.3898 45.4015 74.701Z" fill="#595447"/>
<path d="M43.563 24.0527C43.3011 23.9779 43.0391 23.9055 42.5498 23.7656C42.881 23.4111 43.0614 23.1047 43.3332 22.9431C44.3291 22.3546 45.8638 22.7598 46.8968 23.908C46.6398 23.9755 46.4322 24.031 46.2172 24.0889C45.8885 25.3866 45.5326 25.7773 44.7146 25.7242C43.9757 25.676 43.6866 25.2539 43.563 24.0551V24.0527Z" fill="#595447"/>
<path d="M33.4081 23.997H32.5654C32.9089 23.3409 33.4378 23.0539 34.0037 22.8537C35.1825 22.434 36.1414 22.7283 36.7617 23.6907C36.6455 23.7775 36.5368 23.8909 36.4033 23.9488C36.26 24.0091 36.092 24.0187 35.9437 24.0477C35.8448 25.3116 35.4618 25.7602 34.5326 25.7265C33.7615 25.6975 33.4724 25.2778 33.4057 23.997H33.4081Z" fill="#595447"/>
<path d="M37.1865 31.4598C38.049 31.4598 38.8546 31.4767 39.6603 31.455C40.461 31.4333 41.2617 31.3729 42.1439 31.3247C42.1439 31.5104 42.2354 31.8144 42.1291 31.9181C41.6151 32.415 41.1183 33.018 40.4832 33.2881C39.3761 33.7585 37.9279 32.9167 37.1865 31.4598Z" fill="#595447"/>
<path d="M47.4257 21.8504C47.0921 22.4342 46.667 22.4679 46.2148 22.2822C44.9915 21.7829 43.7435 21.4886 42.4065 21.725C42.325 21.7395 42.2162 21.6068 41.9814 21.45C42.8167 20.6299 43.7954 20.3839 44.8457 20.4683C45.9009 20.5528 46.9018 20.8422 47.4282 21.8504H47.4257Z" fill="#595447"/>
<path d="M38.6914 28.3076C39.3488 29.0023 40.0926 28.8937 40.923 28.5705C41.0663 29.3376 40.5622 29.4461 40.1099 29.5185C39.3562 29.6367 38.8298 29.2218 38.6914 28.31V28.3076Z" fill="#595447"/>
</g>
<defs>
<clipPath id="clip0_4032_799">
<rect width="81" height="98" fill="white"/>
</clipPath>
</defs>
</svg>
