<svg width="407" height="407" viewBox="0 0 407 407" fill="none" xmlns="http://www.w3.org/2000/svg">
<g clip-path="url(#clip0_4032_796)">
<path d="M59.6723 279.258V259.232H99.4344V227.756H59.7015V207.657H39.9517V199.489H59.4827V147.87H20.0123V119.822H27.9764V139.221H39.3974V87.9227H19.9248V79.7547H39.3829V68.1445H8.2704V99.5621H27.816V107.759H8.24123V239.22H27.8306V247.52H8.28499V319.063H27.8597V327.289H8.37251V338.885H39.3974V307.511H19.9977V259.305H39.3974V227.727H19.9686V159.626H47.8429V187.47H39.8059V167.969H28.3994V219.326H47.9158V239.133H87.6488V247.491H48.12V267.429H28.3265V298.934H99.5803V279.419H127.644V287.441H108.055V319.077H127.644V327.333H107.909V347.344H87.9405V387.018H79.8889V339.147H99.3761V307.598H48.2367V338.87H59.614V319.281H87.6488V327.289H68.0594V347.33H8.22664V378.879H27.8451V387.266H8.28499V398.715H39.4266V367.385H19.954V359.276H47.9158V398.701H59.5556V359.246H67.8698V398.745H99.6532V359.071H119.52V339.147H139.503V319.15H179.192V287.528H159.544V187.908H127.965V227.318H119.563V207.599H79.8743V179.667H87.8821V199.183H119.476V179.652H167.8V219.121H199.204V187.864H187.812V207.321H179.542V147.841H159.676V139.673H187.754V179.346H227.414V187.616H207.898V219.296H227.443V227.479H168.063V239.22H227.429V247.607H207.854V258.94H239.244V239.454H247.354V287.31H239.389V267.765H227.852V319.048H247.412V327.304H207.912V338.943H227.662V358.78H239.258V339.147H278.933V327.406H259.373V307.409H239.521V299.284H258.979V227.654H239.594V219.442H258.979V207.628H219.611V199.504H239.258V179.594H247.572V199.299H267.468V258.897H319.147V239.425H327.257V287.28H307.726V378.791H327.169V387.032H279.472V379.01H299.033V307.365H279.472V279.375H287.48V298.949H299.149V279.214H318.987V267.736H267.876V319.048H287.334V347.301H247.66V387.047H239.375V367.356H219.435V347.607H187.783V367.079H159.734V339.235H167.683V358.75H179.425V339.06H199.409V319.179H219.144V267.56H199.481V247.826H168.004V278.864H179.411V259.422H187.696V279.098H207.519V307.146H199.438V287.689H187.71V327.347H148.138V378.952H187.579V387.032H139.62V347.607H127.98V367.283H108.142V398.73H119.607V379.141H127.878V398.686H199.467V359.203H207.489V406.956H0V0H187.521V7.99298H128.155V39.5565H147.569V47.9287H127.892V67.9257H107.924V87.6748H99.7699V28.1796H79.9326V19.9533H107.836V59.4222H119.33V8.32845H67.9865V47.812H59.7599V8.3722H28.1806V47.7974H19.8665V8.28469H8.35792V59.4368H39.7329V19.9241H47.9742V139.498H68.0011V159.203H139.284V127.873H119.753V119.69H139.488V99.7955H147.832V119.355H199.394V99.6934H219.144V87.9519H199.715V79.886H227.443V107.774H207.912V159.159H239.258V139.717H247.587V159.305H299.208V139.717H307.274V187.47H299.339V167.838H199.511V128.165H148.123V159.466H167.64V167.736H107.909V187.485H99.7116V168.042H68.2199V219.34H107.836V239.104H139.474V199.649H147.759V299.168H167.567V307.234H119.811V299.299H139.24V267.546H119.753V259.261H139.342V247.884H107.924V267.517H87.9842V287.266H79.7576V267.838H68.0157V287.28H39.9663V279.258H59.6869H59.6723Z" fill="#262013"/>
<path d="M347.576 367.327V398.715H398.832V387.339H359.245V379.01H398.774V347.432H378.951V327.552H327.462V347.155H319.323V299.489H347.095V307.321H327.666V318.961H358.953V299.46H367.268V319.048H387.178V338.87H398.745V307.467H379.184V299.241H398.774V167.984H367.632V219.151H378.907V179.653H387.076V287.281H339.306V259.466H347.387V278.923H378.747V227.698H359.07V207.657H339.349V199.475H358.793V167.984H327.666V179.317H347.168V187.675H327.637V219.34H347.357V239.235H367.151V267.371H359.114V247.651H339.174V227.888H307.493V247.345H279.254V187.777H259.519V179.696H287.51V199.372H307.231V207.599H287.816V239.06H299.237V219.399H319.06V139.79H327.432V159.203H398.788V127.932H379.112V87.9813H359.274V79.857H387.192V119.297H398.774V8.32864H347.664V39.6296H367.195V47.8122H339.189V8.28488H307.654V79.4486H338.897V67.9842H319.352V19.968H327.374V59.3787H378.747V28.1069H359.231V19.9972H387.061V67.8821H347.503V107.628H339.189V88.1417H307.479V107.657H299.266V88.0834H287.539V107.643H279.269V87.9375H259.49V39.8921H287.306V67.7509H279.196V48.2352H267.833V79.4194H299.019V28.1215H279.415V19.8222H298.975V8.25571H227.721V27.8589H219.451V8.29946H207.796V59.437H239.084V48.0456H219.626V39.7171H239.302V19.968H267.366V27.9902H247.923V119.341H259.198V99.8249H267.454V139.206H279.196V119.559H319.104V99.8395H327.345V119.443H347.343V139.308H358.968V99.854H367.326V139.483H387.163V147.579H339.189V128.136H287.612V147.564H259.271V128.121H227.721V147.564H219.523V119.618H239.084V68.1739H187.813V87.675H179.411V68.1447H148.109V79.6528H167.757V99.5769H187.477V107.628H159.443V88.0834H127.966V107.774H88.1306V139.265H99.5662V119.749H107.764V139.498H127.659V147.579H79.7581V68.276H68.0307V127.64H59.8916V59.6558H79.6122V39.9213H87.8534V99.4311H119.462V79.7549H139.43V59.7433H199.205V28.4132H167.99V39.7317H187.521V47.8268H159.472V28.136H139.693V19.8076H199.38V0.0439453H406.986V407H219.567V379.229H227.517V398.73H259.169V359.261H287.247V367.342H267.775V398.715H338.854V367.444H319.366V359.232H358.764V347.505H339.291V339.395H367.282V358.999H387.105V367.356H347.576V367.327Z" fill="#262013"/>
</g>
<defs>
<clipPath id="clip0_4032_796">
<rect width="407" height="407" fill="white"/>
</clipPath>
</defs>
</svg>
