<svg width="82" height="107" viewBox="0 0 82 107" fill="none" xmlns="http://www.w3.org/2000/svg">
<g clip-path="url(#clip0_4032_786)">
<path d="M40.9767 133.348C40.9537 133.758 40.922 134.167 40.9104 134.577C40.6943 141.305 40.4954 148.037 40.2591 154.765C40.1092 159 39.8614 163.235 39.7374 167.47C39.4694 176.723 39.2821 185.979 39.0083 195.231C38.7633 203.487 38.4809 211.74 38.1494 219.992C37.9938 223.864 38.1754 227.701 38.7316 231.535C39.1524 234.455 39.1236 234.423 36.2444 234.351C31.4458 234.231 26.6414 234.394 21.837 234.36C18.5256 234.337 15.217 234.185 11.9055 234.079C11.4357 234.065 10.9659 233.979 10.5077 233.927C9.83905 232.486 9.77564 231.088 10.182 229.669C10.7008 227.858 11.4847 227.248 13.3897 227.213C15.7991 227.17 18.0298 226.52 20.1078 225.348C20.7217 225.001 21.2606 224.52 21.765 224.147C21.69 223.399 21.5863 222.792 21.5776 222.185C21.2923 203.756 20.9609 185.328 20.762 166.897C20.6352 155.152 20.7015 143.406 20.69 131.657C20.69 130.895 20.6957 130.124 20.788 129.368C20.8975 128.474 21.0012 127.691 20.3874 126.829C20.0012 126.287 20.0617 125.353 20.102 124.605C20.2922 120.983 20.4853 117.361 20.788 113.748C21.5431 104.744 21.8169 95.7352 21.3817 86.7088C21.2549 84.0869 21.1079 81.4649 20.9638 78.843C20.9551 78.6711 20.9032 78.4991 20.7591 78.3329C20.5574 81.0896 20.298 83.8404 20.1654 86.5999C19.8225 93.7035 19.5833 100.813 19.2086 107.916C18.9204 113.398 18.4852 118.871 18.1365 124.35C18.0529 125.668 17.6091 126.668 16.1306 126.981C16.2631 129.204 16.4044 131.385 16.5225 133.566C16.6032 135.09 16.7185 136.615 16.6926 138.139C16.6695 139.431 16.2891 140.615 14.897 141.002C14.897 142.139 14.8913 143.179 14.897 144.223C14.9143 146.329 14.58 146.796 12.3436 147.587C12.0208 147.214 11.6057 146.83 11.3089 146.369C9.35198 143.334 8.35767 139.967 7.98877 136.411C7.6631 133.262 7.73227 130.118 8.26833 126.992C8.29139 126.858 8.25392 126.711 8.23951 126.448C6.96564 126.456 6.87918 125.542 6.87342 124.577C6.85613 121.235 6.85613 117.894 6.82154 114.55C6.74661 107.676 6.56504 100.799 6.60539 93.9242C6.62268 90.7836 7.01176 87.643 7.32302 84.511C7.80144 79.6683 8.32021 74.8284 8.88509 69.9943C9.43844 65.2547 9.99468 60.5152 10.6979 55.7985C11.0985 53.0992 12.7096 51.0533 15.0901 49.738C16.8453 48.7666 18.71 47.9843 20.5459 47.1676C24.1801 45.5543 27.8288 43.9754 31.5121 42.365C32.0654 40.7603 32.6044 39.1958 33.1577 37.5911C31.2037 35.6626 30.6042 33.1868 29.9442 30.774C27.1976 30.4903 25.9007 28.9172 25.3675 25.8425C25.1917 24.8224 25.1946 23.722 25.382 22.7076C25.5376 21.868 26.0852 21.1029 26.7077 20.3636C26.6212 19.7103 26.5348 19.0541 26.4627 18.4982C25.2407 17.8448 24.0994 17.2603 22.9841 16.627C22.6152 16.4178 22.2693 16.1284 21.9927 15.8075C21.3471 15.0624 21.4335 14.1053 22.3154 13.7787C25.0102 12.7815 26.1457 10.4575 27.4253 8.21098C28.2755 6.72092 29.0969 5.19933 30.1114 3.82388C31.3392 2.16189 33.0626 1.17042 35.1319 0.746323C37.1494 0.33369 39.1437 -0.333975 41.2188 0.196145C42.3601 0.488427 43.5418 0.826558 44.5447 1.41399C46.4382 2.52294 48.2078 3.83248 50.0437 5.04173C50.3549 5.24518 50.7123 5.39418 51.0697 5.5088C51.4789 5.64062 51.9141 5.68933 52.3291 5.79822C55.6031 6.65501 57.0413 8.41443 57.2719 11.7929C57.4246 14.0251 56.9548 16.157 56.3064 18.2689C56.168 18.7217 56.0095 19.1687 55.8251 19.7189C56.9894 20.461 57.1623 21.6474 56.9692 22.8509C56.7358 24.298 56.4361 25.7594 55.949 27.1377C55.4619 28.5103 54.4936 29.5075 52.845 29.4559C52.4098 30.946 52.1216 32.4561 51.525 33.8344C50.9285 35.2127 50.0235 36.4592 49.0638 38.0868C49.5653 39.1327 50.1964 40.554 50.9285 41.9209C51.1043 42.2504 51.5856 42.4624 51.9689 42.6372C57.0326 44.9268 62.1252 47.1619 67.1717 49.4916C69.9471 50.7724 71.5121 53.0935 71.9761 56.0335C72.6361 60.2286 73.1693 64.4438 73.6621 68.6618C74.4287 75.2009 75.0858 81.7543 75.8467 88.2934C76.302 92.1991 76.132 96.1106 76.0888 100.022C76.0023 108.043 75.9014 116.063 75.8092 124.084C75.8092 124.322 75.7948 124.562 75.7919 124.8C75.789 125.688 75.6536 126.482 74.4085 126.396C75.351 133.93 75.2299 141.156 70.6071 147.504C68.4657 147.243 67.6905 146.329 67.7856 144.343C67.8346 143.294 67.9182 142.248 67.9902 141.113C66.212 140.523 65.8719 139.059 65.9324 137.471C66.0218 135.041 66.2177 132.614 66.3705 130.187C66.4339 129.187 66.5031 128.187 66.5751 127.067C64.6903 126.594 64.549 125.075 64.4741 123.505C64.0937 115.496 63.7651 107.484 63.3011 99.4775C62.8947 92.4255 62.3385 85.3821 61.8428 78.3358C61.8255 78.0836 61.7304 77.8372 61.4479 77.608C61.3413 78.7714 61.2059 79.9319 61.1367 81.0982C60.811 86.6716 60.2692 92.245 60.2605 97.8184C60.2519 102.767 60.8744 107.716 61.1655 112.67C61.4278 117.149 61.641 121.628 61.8226 126.11C61.8485 126.746 61.5748 127.39 61.471 128.035C61.4047 128.454 61.3586 128.881 61.373 129.302C61.8975 143.429 61.9206 157.561 61.7765 171.694C61.6093 188.071 61.4566 204.447 61.2693 220.823C61.2577 221.803 60.9983 222.781 60.8369 223.898C62.3356 225.351 64.3675 225.841 66.4944 226.016C67.7337 226.116 68.9874 226.105 70.2324 226.076C71.0019 226.059 71.5524 226.325 71.8608 227.004C72.858 229.191 73.3595 231.423 72.3882 233.982C70.6878 234.096 68.9297 234.303 67.1717 234.314C60.9782 234.351 54.7818 234.32 48.5882 234.326C47.5795 234.326 46.5737 234.366 45.565 234.394C44.3343 234.429 44.0231 234.137 44.0749 232.896C44.1009 232.277 44.2104 231.664 44.2565 231.045C44.4035 229.099 44.3343 227.128 44.4583 225.205C44.7782 220.322 44.2997 215.473 44.2219 210.614C44.1268 204.699 43.8098 198.785 43.6023 192.87C43.4092 187.383 43.2363 181.895 43.0547 176.408C42.9423 173.078 42.853 169.749 42.7146 166.422C42.3774 158.37 42.0172 150.32 41.6684 142.271C41.5589 139.744 41.4609 137.213 41.3456 134.686C41.3255 134.236 41.2448 133.786 41.1929 133.336C41.118 133.342 41.043 133.348 40.9681 133.351L40.9767 133.348ZM40.7145 120.235C40.8586 120.224 41.0056 120.21 41.1497 120.198C41.3255 120.708 41.5474 121.207 41.6627 121.731C41.7837 122.287 41.8039 122.866 41.8702 123.436C42.6714 130.5 43.5821 137.552 44.2421 144.627C44.879 151.455 45.2768 158.304 45.735 165.149C45.9829 168.857 46.15 172.568 46.3258 176.279C46.4728 179.331 46.6025 182.385 46.7005 185.437C47.0752 197.269 47.4354 209.103 47.8014 220.938C47.8389 222.121 47.8792 223.302 47.9196 224.486C50.5394 224.371 56.3064 223.311 57.5831 222.726C57.5831 221.875 57.5687 221.021 57.5831 220.17C57.7503 211.052 57.9347 201.937 58.0932 192.819C58.318 179.93 58.5083 167.038 58.7446 154.149C58.9002 145.701 58.9924 137.254 59.7908 128.829C59.8945 127.743 59.8369 126.551 59.0501 125.594C56.168 122.081 53.3206 118.542 50.4068 115.057C47.1558 111.166 43.8473 107.323 40.5588 103.463C40.36 103.229 40.115 103.031 39.8412 102.764C39.089 103.83 38.4319 104.825 37.7114 105.773C32.8292 112.212 27.947 118.648 23.0302 125.061C22.3327 125.969 22.1685 126.958 22.2348 127.998C22.4365 131.285 22.7968 134.563 22.9149 137.85C23.1714 145.005 23.3559 152.163 23.4971 159.324C23.7046 169.966 23.866 180.612 24.0159 191.257C24.1283 199.183 24.1945 207.109 24.2695 215.035C24.2925 217.462 24.2724 219.889 24.2724 222.339C27.6069 223.609 30.9443 223.783 34.1117 224.46C34.2673 220.855 34.4229 217.431 34.5613 214.003C34.7774 208.708 34.959 203.413 35.1953 198.12C35.6334 188.3 36.0859 178.48 36.5672 168.662C36.7142 165.662 36.988 162.668 37.1667 159.671C37.2387 158.481 37.1551 157.284 37.2301 156.094C37.6624 149.234 38.1033 142.377 38.5731 135.52C38.821 131.904 39.0919 128.285 39.4377 124.677C39.5847 123.135 39.9046 121.599 40.7174 120.244L40.7145 120.235ZM22.8457 120.565C22.9754 120.573 23.1051 120.579 23.2348 120.588C23.3559 120.447 23.4769 120.307 23.5951 120.167C28.1602 114.696 32.7024 109.206 37.2992 103.759C39.2734 101.42 39.2706 101.463 39.3657 98.4259C39.432 96.2882 39.5876 94.1448 39.8585 92.0244C39.9738 91.1246 39.9334 90.3681 39.5444 89.5485C38.1984 86.7088 36.8035 83.8834 35.6132 80.9778C32.5237 73.43 29.5638 65.8278 26.4714 58.2829C25.9757 57.0737 26.1313 56.1968 26.9527 55.3057C27.6559 54.5406 28.3476 53.7612 29.0652 52.9617C27.6415 52.1536 26.2956 51.3885 25.1341 50.7295C24.7277 49.1248 25.9843 48.2221 26.0535 46.8839C23.1109 48.1304 20.2922 49.311 17.4851 50.5231C14.8135 51.6779 13.5223 53.8357 13.1073 56.6095C12.9027 57.9763 12.698 59.346 12.456 60.7072C11.9314 63.6644 11.1763 66.5958 10.8881 69.5759C10.2858 75.797 9.7987 82.0352 9.50473 88.2763C9.21941 94.3282 9.22805 100.395 9.12718 106.455C9.04072 111.656 8.98308 116.857 8.92832 122.058C8.91967 122.854 9.00037 123.651 9.03496 124.33H15.9893C16.0528 124.006 16.0989 123.872 16.1046 123.734C16.4764 114.484 16.8136 105.231 17.2286 95.9845C17.5168 89.5915 18.4218 83.2588 19.3959 76.9403C19.955 73.3154 20.6583 69.7077 20.3124 66.0055C20.2433 65.2519 20.3268 64.4782 20.3787 63.7188C20.3931 63.4953 20.5401 63.2804 20.6237 63.0597C23.866 82.1641 24.7537 101.309 22.8486 120.562L22.8457 120.565ZM53.0986 52.4602C53.8336 53.2712 54.4619 53.9847 55.1132 54.6781C56.0989 55.7269 56.3064 56.8015 55.6608 58.1769C54.3062 61.0711 53.1015 64.0312 51.8334 66.9654C51.2772 68.2492 50.7238 69.5358 50.1013 70.9686H51.6749C51.623 70.4069 51.3838 69.8138 51.5654 69.3983C52.0525 68.275 52.649 67.1804 53.3379 66.1688C53.8076 65.4811 54.5829 65.4295 55.4129 65.7562C55.8049 65.9109 56.2026 66.1029 56.6119 66.1631C58.6495 66.4525 59.9954 68.7019 59.3412 70.6419C58.955 71.791 57.9981 72.3211 57.1566 73.0174C56.3208 73.7109 55.3899 73.8484 54.361 73.6392C53.7932 75.2496 54.5281 76.9288 53.8653 78.5106C52.4242 78.0235 52.8911 76.648 52.2081 75.9775C51.1561 75.1866 50.1042 74.3957 48.9629 73.5361C47.9571 75.6594 46.9483 77.7512 45.9742 79.8574C44.4698 83.104 43.0316 86.3764 41.4753 89.5973C40.9623 90.6632 40.579 91.6289 40.9306 92.8439C41.1641 93.652 41.1381 94.5431 41.1785 95.3999C41.2563 97.0189 41.2592 98.6437 41.386 100.26C41.4263 100.784 41.6511 101.372 41.9768 101.781C47.5478 108.776 53.1505 115.751 58.7503 122.725C58.9377 122.96 59.1855 123.144 59.5429 123.482C59.5429 122.74 59.5746 122.218 59.5371 121.7C59.2403 117.51 58.9982 113.315 58.6091 109.134C57.9174 101.65 57.9059 94.1649 58.5111 86.683C59.0184 80.4047 59.6178 74.135 60.1971 67.8624C60.3384 66.3436 60.5603 64.8335 60.7563 63.3205C60.8254 62.7847 60.9032 62.2201 61.7679 62.521C62.2722 64.163 62.2059 65.8794 62.2146 67.5901C62.2203 68.7822 62.0964 69.9914 62.2492 71.1634C62.6728 74.4272 63.2809 77.6653 63.6873 80.932C64.3703 86.4223 65.186 91.9126 65.5232 97.4287C66.0477 106.051 66.2177 114.693 66.5463 123.33C66.5578 123.645 66.627 123.958 66.6875 124.396H73.6534C73.6736 124.066 73.7111 123.786 73.7053 123.505C73.4603 110.149 74.3134 96.7725 72.9041 83.4364C72.2239 76.989 72.2038 70.4786 70.8463 64.0971C70.2699 61.392 69.9932 58.6268 69.3995 55.9246C68.8808 53.5663 67.7452 51.6407 65.2234 50.7065C62.7996 49.8096 60.4853 48.6319 58.1163 47.586C57.7877 47.4398 57.4332 47.351 56.9548 47.1877C56.9981 47.6089 56.975 47.8983 57.0643 48.1476C57.5601 49.5173 57.39 50.1392 55.8279 51.0504C55.0066 51.5289 54.1362 51.9244 53.09 52.4602H53.0986ZM30.2152 18.8736C30.2152 19.0999 30.1835 19.3406 30.2209 19.567C30.7109 22.6732 31.1489 25.788 31.7369 28.8771C32.0366 30.4617 32.5093 32.0291 33.077 33.5392C33.8869 35.697 35.4778 37.1011 37.8007 37.4822C39.1178 37.6971 40.4695 37.7888 41.8039 37.7888C45.3834 37.7888 47.9484 36.0781 49.2252 32.7398C49.7641 31.3299 50.1734 29.8284 50.3492 28.3355C50.7325 25.0688 50.9227 21.782 51.208 18.5039C51.2887 17.564 51.4155 16.627 51.4876 15.9908C50.4299 14.538 49.5393 13.3173 48.5969 12.025C46.4209 11.8588 44.3141 12.4376 42.3428 13.4921C40.8672 14.283 39.4464 15.1742 38.0082 16.0338C35.7343 17.3949 33.4113 18.6157 30.6676 18.693C30.5379 18.6959 30.4111 18.7962 30.2238 18.8764L30.2152 18.8736ZM53.5655 20.3407C54.3984 20.2146 54.6261 19.7389 54.6492 19.0283C54.7011 17.4093 54.8855 15.7874 54.8625 14.1712C54.8452 12.9448 54.7385 11.6783 54.4042 10.5063C53.9633 8.95028 52.113 8.20525 50.5826 8.83853C49.8736 9.13368 49.2367 8.98754 48.6632 8.65227C47.9686 8.2425 47.3461 7.70952 46.7034 7.21665C45.343 6.1736 44.0432 5.03886 42.6224 4.08464C39.3801 1.91545 34.7976 2.35961 32.0337 5.07611C31.3219 5.7753 30.708 6.58337 30.1258 7.39431C28.4629 9.71251 27.0045 12.1998 24.3732 13.836C25.6413 14.3403 26.7509 14.7759 27.8548 15.2229C29.9414 16.0711 31.9991 15.9049 33.9733 14.9277C35.3856 14.2286 36.7372 13.4004 38.1062 12.6181C39.9824 11.5464 41.8903 10.5263 44.0259 10.0965C46.614 9.57497 48.96 9.87871 50.7699 12.1367C51.3377 12.8445 52.2542 13.2801 53.0208 13.8245C53.2139 13.9621 53.4589 14.0222 53.6549 14.1541C54.4705 14.7014 54.5397 15.1197 54.0065 15.9278C53.8307 16.1914 53.5915 16.4837 53.5799 16.7731C53.531 17.9537 53.5598 19.1372 53.5598 20.3436L53.5655 20.3407ZM47.2711 54.3944C44.8589 56.8846 43.7147 60.2945 40.6338 62.4752C38.8325 60.0338 37.0946 57.6755 35.3884 55.3601C37.1234 66.5127 38.8584 77.6538 40.5934 88.792C41.5301 85.4136 42.2909 82.0008 42.9279 78.565C44.0548 72.4758 45.1067 66.3723 46.1932 60.2745C46.5449 58.3116 46.9109 56.3545 47.2711 54.3916V54.3944ZM58.661 225.391C54.508 226.064 50.4529 226.723 46.2451 227.405V232.156C54.7875 232.257 63.206 232.357 71.7196 232.457C71.8118 230.956 70.8982 229.844 70.1575 228.566C65.9295 228.718 61.8428 228.403 58.661 225.391ZM11.283 232.698C12.6058 232.578 13.8393 232.386 15.0729 232.369C21.7823 232.283 28.4917 232.24 35.204 232.185C35.7083 232.182 36.2098 232.185 36.841 232.185C36.7084 230.271 36.5903 228.54 36.4692 226.764C32.1721 227.311 28.3562 225.772 24.3242 225.222C24.281 225.253 24.1571 225.325 24.062 225.425C21.984 227.632 19.393 228.881 16.4303 229.374C15.3956 229.546 14.3264 229.52 13.2831 229.655C11.894 229.838 11.0207 231.102 11.283 232.698ZM38.3887 84.1184C38.4319 84.1184 38.4751 84.1184 38.5183 84.1184C36.1089 70.98 33.6996 57.8388 31.2786 44.6345C30.0221 45.0357 29.1142 45.4397 28.5868 46.5831C28.1545 47.5172 27.3821 48.2966 26.774 49.1534C26.5434 49.4801 26.3474 49.8297 26.1572 50.1363C27.5118 50.5432 28.7597 50.8756 29.9759 51.2997C30.9328 51.6321 31.0654 52.0619 30.5725 52.9445C30.342 53.36 30.0393 53.7354 29.754 54.1194C29.1574 54.9217 28.5522 55.7183 28.0133 56.429C31.4977 65.7333 34.9417 74.9258 38.3858 84.1184H38.3887ZM56.2228 49.7007C55.6291 48.5345 55.0786 47.4255 54.4993 46.3309C54.3725 46.093 54.1823 45.8352 53.9517 45.7205C53.0266 45.2621 52.0784 44.858 51.0639 44.4024C48.7871 56.1797 46.5449 67.785 44.2997 79.3903L44.49 79.439C47.7496 71.6907 51.0063 63.9423 54.2543 56.2198C53.3868 54.5234 51.7498 53.3772 51.2253 51.4573C52.7297 50.314 54.4849 50.1907 56.2199 49.7036L56.2228 49.7007ZM48.0983 44.5829C48.0983 45.1503 48.0752 45.5801 48.1012 46.0042C48.3087 49.2852 47.4383 49.2766 44.7897 48.5574C43.7694 48.2794 42.778 48.0731 41.7088 48.0129C40.115 47.9241 38.5818 47.927 37.109 48.6233C36.8122 48.7637 36.4606 48.7952 36.132 48.8554C34.5901 49.1391 33.9762 48.6319 33.9676 47.0702C33.9618 46.1217 33.9676 45.1761 33.9676 44.1617C33.6016 44.0242 33.2788 43.9038 32.9589 43.7834C32.8782 43.9754 32.7975 44.07 32.8119 44.1416C33.1894 45.9584 33.567 47.7751 33.9791 49.5832C34.0368 49.8354 34.2702 50.0503 34.4345 50.2738C35.3683 51.5318 36.3655 52.7496 37.233 54.0534C38.3339 55.7126 39.3282 57.4433 40.4291 59.24C40.7635 58.8331 40.9998 58.5408 41.2448 58.2543C43.2881 55.853 45.3027 53.423 47.4037 51.0704C47.8735 50.5432 48.1905 50.0331 48.3317 49.3655C48.6689 47.7808 49.0378 46.2019 49.3808 44.6202C49.4067 44.4998 49.3491 44.3651 49.3232 44.1789C48.9197 44.3107 48.5681 44.4253 48.0983 44.5801V44.5829ZM68.0853 137.784C68.1919 137.801 68.2986 137.815 68.4052 137.832C69.4341 135.981 69.0566 133.781 69.8088 131.517C70.5639 133.165 70.7714 134.609 70.6619 136.062C70.4601 138.767 70.1316 141.463 69.8664 144.162C69.8376 144.457 69.8895 144.761 69.9183 145.395C71.0337 143.483 71.5322 141.727 72.002 139.941C73.1577 135.563 72.0049 131.127 72.5208 126.608C71.3564 126.777 70.3477 126.926 69.3736 127.067C68.9326 130.732 68.5061 134.256 68.0824 137.781L68.0853 137.784ZM12.6721 145.142C12.7528 145.111 12.8364 145.082 12.9171 145.051C12.8104 144.119 12.6894 143.188 12.6058 142.254C12.4617 140.641 12.4329 139.013 12.185 137.417C11.9199 135.726 12.0236 134.099 12.4877 132.474C12.5539 132.245 12.7269 132.044 12.9661 131.631C13.5915 133.821 13.2831 135.976 14.312 137.795C14.4186 137.775 14.5253 137.758 14.6319 137.738C14.1909 134.216 13.7529 130.692 13.2975 127.041C12.3522 126.918 11.3464 126.789 10.1878 126.637C10.1878 129.239 10.2598 131.663 10.1705 134.084C10.0437 137.577 10.6979 140.901 12.064 144.099C12.2196 144.466 12.4675 144.793 12.6721 145.139V145.142ZM54.1477 67.3208C53.8653 67.8939 53.4791 68.679 53.0324 69.5845C53.8336 70.4614 54.6175 71.321 55.4331 72.2122C56.5196 71.6334 57.4678 71.1262 58.3872 70.6362C58.2345 69.8367 58.1451 69.2263 57.9981 68.6303C57.854 68.0486 57.4505 67.8165 56.8395 67.7621C56.0182 67.6876 55.2083 67.5013 54.1448 67.3208H54.1477ZM47.2567 39.0783C42.8674 40.8606 38.55 40.5941 34.2731 38.5911C34.2443 38.7201 34.2126 38.849 34.1837 38.978C36.4058 40.0067 38.6279 41.0354 40.8845 42.0785C41.9682 41.6143 43.072 41.1586 44.1614 40.6686C45.2076 40.1987 46.4267 40.0554 47.2538 39.0783H47.2567ZM34.9129 43.2791C34.9907 44.7262 34.9878 46.0931 35.3193 47.6662C36.4894 46.9986 37.4664 46.4426 38.4578 45.8781C38.5673 45.3452 38.6653 44.858 38.7748 44.325C37.4491 43.9668 36.2848 43.6488 34.9129 43.2763V43.2791ZM47.251 43.2304C45.9857 43.6172 44.9972 43.9181 43.9942 44.2247C44.0404 44.9182 44.0778 45.5257 44.1182 46.136C45.0174 46.6346 45.8388 47.0903 46.8993 47.6777C47.0233 46.0902 47.1299 44.7405 47.251 43.2275V43.2304ZM53.4474 21.507C53.2975 23.3352 53.1534 25.0745 53.0122 26.8168C53.1332 26.8368 53.2514 26.8569 53.3724 26.8769C54.5598 25.3095 55.0008 23.5214 54.9662 21.4239C54.3927 21.4554 53.9863 21.4754 53.4474 21.507ZM28.0968 22.6675C27.1775 24.3811 27.8058 26.9858 29.3477 27.6793C29.241 26.2293 29.1344 24.8109 29.0364 23.3925C28.9932 22.7821 28.679 22.5557 28.094 22.6675H28.0968ZM34.2587 39.9866C33.9589 40.8578 33.59 41.62 34.031 42.6487C34.8408 41.15 36.0628 41.9495 37.3021 41.8406C36.2156 41.1787 35.2904 40.6142 34.2587 39.9866ZM51.8277 74.4129C51.9602 74.3757 52.0928 74.3413 52.2254 74.304C52.3003 73.7281 52.3752 73.1492 52.4415 72.6535C51.6836 72.0145 51.0985 71.4099 49.8938 71.5932C50.6201 72.6506 51.2253 73.5332 51.8277 74.4158V74.4129ZM47.617 40.2359C46.859 40.7489 46.2509 41.1558 45.467 41.6859C46.3201 41.7375 46.9541 41.7747 47.5565 41.812C47.7928 42.3937 47.9888 42.8722 48.1876 43.3508L48.5162 43.2304C48.2309 42.2819 47.9484 41.3363 47.6199 40.2388L47.617 40.2359ZM42.2564 45.4025C41.5935 44.5371 41.4235 44.517 40.2649 45.1016C40.8615 45.8609 40.8845 45.8638 42.2564 45.4025ZM28.4023 18.5813C28.2813 18.6472 28.1574 18.7131 28.0363 18.7761C28.2813 19.504 28.5234 20.2347 28.7684 20.9625C28.7453 20.1315 29.5523 19.0369 28.4023 18.5784V18.5813Z" fill="#595447"/>
<path d="M45.4705 93.4346C46.8568 93.449 47.8453 94.5092 47.8136 95.9448C47.7848 97.2429 46.825 98.2029 45.5512 98.2086C44.2485 98.2143 43.136 97.2229 43.1475 96.0681C43.1591 94.7413 44.3234 93.4232 45.4705 93.4346Z" fill="#595447"/>
<path d="M38.006 22.8188C37.6256 22.9706 37.2538 23.1196 36.9137 23.2543C36.761 23.7243 36.6601 24.2229 36.4295 24.6527C36.32 24.859 35.9742 25.0052 35.7119 25.0567C35.0058 25.2 34.5706 24.7501 34.0519 23.3833H32.4033C32.7002 22.2743 33.7982 21.5981 35.3978 21.4634C36.6371 21.3602 37.5074 21.7815 38.0031 22.8159L38.006 22.8188Z" fill="#595447"/>
<path d="M49.7014 23.3669H48.0068C47.6177 24.066 47.4534 25.089 46.2891 24.8569C45.4129 24.6821 45.2659 23.9915 45.2458 23.2895C44.8307 23.1347 44.4561 22.9972 44.0439 22.8425C44.2889 21.7077 45.1564 21.5673 45.9115 21.5071C47.4332 21.3839 48.7993 21.7851 49.7965 22.98C49.7648 23.109 49.7331 23.2379 49.7014 23.3669Z" fill="#595447"/>
<path d="M37.707 31.7454C40.1395 32.6595 42.4336 33.2842 44.7594 31.6709C44.6384 33.0979 42.8976 34.3014 41.252 34.3158C39.5083 34.3301 37.8944 33.2498 37.707 31.7454Z" fill="#595447"/>
<path d="M50.7907 19.9253C48.658 19.9253 46.8567 19.9368 45.0583 19.911C44.7931 19.9081 44.5021 19.7591 44.2686 19.6072C43.7383 19.2634 43.7181 18.6587 44.2686 18.3435C44.6231 18.143 45.1102 17.9624 45.4791 18.0398C47.0527 18.3722 48.6061 18.7963 50.1595 19.2204C50.3324 19.2662 50.4448 19.527 50.7907 19.9224V19.9253Z" fill="#595447"/>
<path d="M30.9482 20.2317C31.6313 19.0941 32.8533 18.5811 34.8505 18.5209C35.9198 18.4894 37.1014 18.243 38.1995 19.4551C35.7094 20.1686 33.4556 20.2259 30.9482 20.2317Z" fill="#595447"/>
<path d="M43.1038 28.6938C43.5938 29.7197 43.4237 30.1839 42.5389 30.5192C41.1988 31.0292 39.4984 30.3988 38.5732 29.0234C39.337 28.1637 40.0287 29.3243 40.7809 29.1065C41.5043 28.8973 42.2709 28.8343 43.1009 28.6938H43.1038Z" fill="#595447"/>
</g>
<defs>
<clipPath id="clip0_4032_786">
<rect width="82" height="107" fill="white"/>
</clipPath>
</defs>
</svg>
