<svg width="496" height="871" viewBox="0 0 496 871" fill="none" xmlns="http://www.w3.org/2000/svg">
<mask id="mask0_0_9837" style="mask-type:luminance" maskUnits="userSpaceOnUse" x="0" y="0" width="496" height="871">
<path d="M0 870.74L3.80612e-05 0L496 2.16808e-05L496 870.74L0 870.74Z" fill="white"/>
</mask>
<g mask="url(#mask0_0_9837)">
<path d="M271.995 730.319C248.753 723.479 226.693 724.84 202.949 725.413C173.619 726.129 144.468 720.758 116.677 711.625C66.0028 694.937 17.0116 660.951 -17.1175 619.695C-17.4756 619.266 -17.3682 617.26 -16.9026 617.833C17.513 659.411 66.0386 691.857 116.677 709.548C145.041 719.433 175.409 723.909 205.42 723.193C228.34 722.656 249.577 721.617 271.995 728.207C272.532 728.35 272.568 730.463 271.995 730.284L271.995 730.319Z" fill="url(#paint0_linear_0_9837)"/>
<path d="M342.832 770.609C342.832 770.609 332.088 766.204 320.413 764.449C308.738 762.694 286.356 758.898 267.411 728.064C267.411 728.064 315.041 717.069 342.832 770.609Z" fill="url(#paint1_linear_0_9837)"/>
<path d="M208.787 724.876C212.153 725.95 216.164 724.016 219.065 722.62L219.495 722.405C221.142 721.617 222.718 720.722 224.258 719.862C226.55 718.573 228.913 717.212 231.527 716.245L231.026 714.92C228.34 715.923 225.905 717.284 223.577 718.609C222.073 719.468 220.533 720.328 218.922 721.115L218.492 721.33C215.627 722.691 212.081 724.41 209.252 723.515L208.822 724.876L208.787 724.876Z" fill="url(#paint2_linear_0_9837)"/>
<path d="M194.391 725.449C198.617 726.667 201.661 728.207 205.815 730.427L206.495 729.174C202.269 726.917 199.19 725.342 194.82 724.088L194.427 725.449L194.391 725.449Z" fill="url(#paint3_linear_0_9837)"/>
<path d="M193.566 724.948C194.712 724.733 196.002 724.698 197.219 724.662C198.365 724.662 199.583 724.59 200.729 724.411C202.233 724.16 203.701 723.587 205.098 723.014C205.564 722.835 206.029 722.656 206.495 722.477C212.296 720.328 219.101 717.213 219.996 712.163L218.599 711.913C217.74 716.783 209.216 719.934 206.029 721.116C205.564 721.295 205.062 721.474 204.597 721.689C203.236 722.226 201.875 722.764 200.514 723.014C199.476 723.193 198.365 723.229 197.219 723.265C195.93 723.301 194.569 723.337 193.316 723.587L193.602 724.984L193.566 724.948Z" fill="url(#paint4_linear_0_9837)"/>
<path d="M143.035 718.466C144.002 719.039 145.184 719.433 146.33 719.863C147.046 720.113 147.762 720.364 148.407 720.651L149.553 721.152C151.344 721.94 153.063 722.656 154.746 723.659C155.892 724.339 157.038 725.127 158.22 725.915C160.762 727.634 163.377 729.389 166.17 730.391L166.635 729.031C163.985 728.099 161.478 726.38 159.007 724.733C157.826 723.945 156.644 723.122 155.462 722.441C153.707 721.403 151.952 720.651 150.126 719.863L148.98 719.361C148.3 719.075 147.547 718.788 146.795 718.538C145.721 718.144 144.575 717.75 143.751 717.284L143.035 718.502L143.035 718.466Z" fill="url(#paint5_linear_0_9837)"/>
<path d="M91.9311 701.025C93.5427 702.171 95.2617 703.245 96.909 704.248C99.1294 705.609 101.421 707.041 103.463 708.689C105.934 710.694 111.7 715.421 112.953 719.755L114.314 719.361C113.096 715.135 108.333 710.837 104.358 707.579C102.245 705.86 99.9173 704.427 97.6253 703.03C95.9779 702.028 94.2948 700.989 92.719 699.879L91.8953 701.025L91.9311 701.025Z" fill="url(#paint6_linear_0_9837)"/>
<path d="M85.7356 698.841C91.8595 701.097 98.1982 700.739 104.358 700.416L106.793 700.273C111.95 700.023 117.215 699.127 122.013 697.623C122.443 697.48 122.873 697.372 123.338 697.229C126.239 696.37 129.856 695.331 131.969 693.182L130.966 692.18C129.104 694.078 125.702 695.08 122.945 695.868C122.479 696.012 122.013 696.119 121.619 696.262C116.928 697.695 111.771 698.59 106.757 698.841L104.322 698.984C98.055 699.342 92.146 699.664 86.2728 697.48L85.7714 698.805L85.7356 698.841Z" fill="url(#paint7_linear_0_9837)"/>
<path d="M12.3205 650.53C14.9348 652.07 18.1221 652.357 21.2019 652.643C22.6702 652.787 24.0669 652.894 25.392 653.18C28.6509 653.825 31.6233 654.291 35.2046 653.753C35.6343 653.682 36.0999 653.646 36.6012 653.574C38.8216 653.324 41.2926 653.001 43.1549 651.569L42.2596 650.459C40.7554 651.676 38.4635 651.927 36.4222 652.178C35.9208 652.249 35.4552 652.285 34.9897 652.357C31.5875 652.858 28.8658 652.428 25.6427 651.784C24.246 651.497 22.7419 651.39 21.3094 651.247C18.3728 650.96 15.3645 650.709 13.0368 649.313L12.3205 650.53Z" fill="url(#paint8_linear_0_9837)"/>
<path d="M5.19378 642.687C5.8384 643.869 6.55466 645.015 7.2709 646.197C7.95133 647.307 8.63178 648.381 9.24059 649.492C10.2075 651.246 10.6373 653.109 11.1386 655.078C11.2819 655.651 11.4251 656.26 11.5684 656.869L11.819 657.836C12.4637 660.235 13.1083 662.706 13.4664 665.106C13.5739 665.715 13.6813 666.323 13.8246 666.896C14.0036 667.72 14.1827 668.472 14.2543 669.26C14.3259 670.012 14.0394 670.692 13.7529 671.373C13.4664 672.053 13.1799 672.77 13.2158 673.593L14.4692 673.593C14.4692 672.984 14.684 672.447 14.9347 671.838C15.257 671.086 15.6152 670.227 15.5077 669.152C15.4361 668.293 15.257 667.433 15.0422 666.61C14.8989 666.037 14.7915 665.464 14.684 664.891C14.2901 662.384 13.6455 659.913 13.0009 657.478L12.7502 656.511C12.6069 655.938 12.4637 655.329 12.3204 654.756C11.8549 652.786 11.3535 650.781 10.3149 648.883C9.70613 647.737 8.98989 646.627 8.30946 645.516C7.59322 644.37 6.91278 643.224 6.26816 642.078L5.15799 642.687L5.19378 642.687Z" fill="url(#paint9_linear_0_9837)"/>
<path d="M299.535 692.394C299.535 692.394 282.595 711.554 262.182 713.774C241.769 715.994 239.442 713.81 226.943 716.926C226.943 716.926 235.323 693.325 263.472 692.43C291.62 691.535 291.62 694.579 299.535 692.43L299.535 692.394Z" fill="url(#paint10_linear_0_9837)"/>
<path d="M217.095 714.347C217.095 714.347 236.971 705.752 242.737 674.739C242.737 674.739 239.406 675.956 228.233 682.116C219.065 687.166 209.575 696.083 217.095 714.347Z" fill="url(#paint11_linear_0_9837)"/>
<path d="M203.629 727.957C244.025 734.116 246.21 769.212 246.21 769.212C246.21 769.212 224.615 763.518 209.252 739.058L203.629 727.957Z" fill="url(#paint12_linear_0_9837)"/>
<path d="M126.132 696.155C153.958 719.325 209.395 670.728 209.395 670.728C209.395 670.728 196.324 675.491 179.42 670.979C162.517 666.466 145.614 674.596 136.732 682.224C127.886 689.852 126.096 696.155 126.096 696.155L126.132 696.155Z" fill="url(#paint13_linear_0_9837)"/>
<path d="M224.544 784.539C224.544 784.539 210.971 773.867 192.384 766.024C173.798 758.217 163.018 726.989 163.018 726.989C163.018 726.989 204.847 719.612 224.544 784.504L224.544 784.539Z" fill="url(#paint14_linear_0_9837)"/>
<path d="M157.861 781.567C157.861 781.567 111.985 771.182 109.55 713.811C109.55 713.811 145.398 716.282 157.861 781.567Z" fill="url(#paint15_linear_0_9837)"/>
<path d="M112.058 651.138C112.058 651.138 103.355 649.777 85.7357 655.543C68.1161 661.309 52.0721 669.259 34.7748 652.606C34.7748 652.606 71.8405 609.811 112.094 651.138L112.058 651.138Z" fill="url(#paint16_linear_0_9837)"/>
<path d="M54.8298 739.882C54.8298 739.882 58.984 681.866 14.5052 666.395C14.5052 666.395 -9.48902 698.053 54.8298 739.882Z" fill="url(#paint17_linear_0_9837)"/>
<path opacity="0.5" d="M87.9196 539.691C84.1235 535.537 76.5313 536.289 70.9446 541.41C65.3579 546.496 63.9254 553.98 67.6857 558.135C71.4818 562.289 79.074 561.537 84.6607 556.416C90.2474 551.33 91.6799 543.846 87.9196 539.691Z" fill="url(#paint18_radial_0_9837)"/>
<path style="mix-blend-mode:multiply" opacity="0.8" d="M82.0463 541.876C79.2888 538.867 74.3109 538.939 70.9087 542.019C67.5066 545.135 66.9694 550.077 69.7269 553.085C72.4845 556.093 77.4624 556.022 80.8646 552.942C84.2667 549.826 84.8039 544.884 82.0463 541.876Z" fill="url(#paint19_radial_0_9837)"/>
<path style="mix-blend-mode:multiply" opacity="0.4" d="M80.1832 542.843C78.6791 541.196 75.4918 541.697 73.0208 543.953C70.5497 546.209 69.7619 549.361 71.266 551.008C72.7701 552.656 75.9574 552.154 78.4284 549.898C80.8995 547.642 81.6873 544.49 80.1832 542.843Z" fill="url(#paint20_radial_0_9837)"/>
<path d="M77.5687 545.959C78.4998 548.502 77.2822 550.185 76.6018 550.758C75.9213 551.331 74.0949 552.298 71.6955 550.973C70.2988 550.22 70.9434 548.788 71.6955 547.714C72.3759 546.747 73.307 545.995 74.3456 545.457C75.4916 544.884 77.0315 544.491 77.5687 545.959Z" fill="url(#paint21_linear_0_9837)"/>
<path opacity="0.5" d="M22.3111 658.23C18.515 654.076 10.9228 654.828 5.33607 659.949C-0.250646 665.07 -1.68312 672.519 2.07717 676.673C5.87327 680.827 13.4655 680.04 19.0522 674.954C24.6389 669.869 26.0714 662.384 22.3111 658.23Z" fill="url(#paint22_radial_0_9837)"/>
<path style="mix-blend-mode:multiply" opacity="0.8" d="M16.4382 660.414C13.6807 657.406 8.70277 657.477 5.30061 660.557C1.89844 663.673 1.36128 668.615 4.11882 671.623C6.87637 674.631 11.8543 674.56 15.2564 671.444C18.6586 668.328 19.1958 663.386 16.4382 660.378L16.4382 660.414Z" fill="url(#paint23_radial_0_9837)"/>
<path style="mix-blend-mode:multiply" opacity="0.4" d="M14.5758 661.381C13.0716 659.734 9.88435 660.235 7.4133 662.491C4.94225 664.747 4.15439 667.899 5.6585 669.546C7.16262 671.194 10.3499 670.692 12.821 668.436C15.292 666.18 16.0799 663.028 14.5758 661.381Z" fill="url(#paint24_radial_0_9837)"/>
<path d="M11.9606 664.497C12.8917 667.04 11.6741 668.723 10.9936 669.296C10.3132 669.869 8.48677 670.836 6.08735 669.511C4.69067 668.759 5.33529 667.326 6.08735 666.252C6.76778 665.285 7.69892 664.533 8.73748 663.996C9.88347 663.423 11.4234 663.029 11.9606 664.497Z" fill="url(#paint25_linear_0_9837)"/>
<path opacity="0.5" d="M146.366 597.135C142.569 592.98 134.977 593.733 129.391 598.854C123.804 603.939 122.371 611.424 126.132 615.578C129.928 619.732 137.52 618.98 143.107 613.859C148.693 608.774 150.126 601.289 146.366 597.135Z" fill="url(#paint26_radial_0_9837)"/>
<path style="mix-blend-mode:multiply" opacity="0.8" d="M140.492 599.283C137.735 596.275 132.757 596.347 129.355 599.462C125.953 602.578 125.416 607.52 128.173 610.528C130.931 613.537 135.909 613.465 139.311 610.349C142.713 607.234 143.25 602.292 140.492 599.283Z" fill="url(#paint27_radial_0_9837)"/>
<path style="mix-blend-mode:multiply" opacity="0.4" d="M138.594 600.25C137.09 598.603 133.903 599.104 131.431 601.36C128.96 603.616 128.173 606.768 129.677 608.415C131.181 610.063 134.368 609.561 136.839 607.305C139.31 605.049 140.098 601.897 138.594 600.25Z" fill="url(#paint28_radial_0_9837)"/>
<path d="M135.981 603.366C136.912 605.908 135.694 607.591 135.014 608.164C134.333 608.737 132.507 609.704 130.107 608.379C128.711 607.627 129.355 606.195 130.107 605.12C130.788 604.153 131.719 603.401 132.758 602.864C133.904 602.291 135.443 601.897 135.981 603.366Z" fill="url(#paint29_linear_0_9837)"/>
<path opacity="0.5" d="M21.5231 494.998C22.2393 489.411 16.76 484.111 9.27526 483.144C1.79049 482.177 -4.87057 485.866 -5.62263 491.453C-6.33888 497.039 -0.859607 502.339 6.62516 503.306C14.1099 504.273 20.771 500.585 21.5231 494.998Z" fill="url(#paint30_radial_0_9837)"/>
<path style="mix-blend-mode:multiply" opacity="0.8" d="M16.0797 491.918C16.6169 487.871 13.3221 484.111 8.77396 483.502C4.18999 482.893 0.0715967 485.687 -0.465588 489.734C-1.00277 493.78 2.29193 497.541 6.84009 498.149C11.4241 498.758 15.5425 495.965 16.0797 491.918Z" fill="url(#paint31_radial_0_9837)"/>
<path style="mix-blend-mode:multiply" opacity="0.4" d="M14.11 491.13C14.3965 488.945 11.9612 486.797 8.63066 486.367C5.30012 485.937 2.39933 487.37 2.11283 489.554C1.82633 491.739 4.26159 493.888 7.59213 494.317C10.9227 494.747 13.8235 493.315 14.11 491.13Z" fill="url(#paint32_radial_0_9837)"/>
<path d="M10.0622 491.13C8.70135 493.494 6.62425 493.637 5.76476 493.494C4.90526 493.351 2.9714 492.563 2.43422 489.877C2.11191 488.337 3.61601 487.871 4.94106 487.764C6.12287 487.656 7.30467 487.871 8.37904 488.337C9.59666 488.838 10.8501 489.733 10.0622 491.13Z" fill="url(#paint33_linear_0_9837)"/>
<path opacity="0.5" d="M29.5805 734.367C28.2555 739.81 33.1259 745.684 40.4674 747.51C47.809 749.337 54.8282 746.328 56.1532 740.885C57.4783 735.441 52.6078 729.568 45.2663 727.742C37.9248 725.915 30.9056 728.924 29.5805 734.367Z" fill="url(#paint34_radial_0_9837)"/>
<path style="mix-blend-mode:multiply" opacity="0.8" d="M34.6301 738.055C33.6632 742.031 36.4924 746.113 40.9689 747.223C45.4455 748.334 49.8504 746.006 50.8173 742.031C51.7842 738.055 48.955 733.973 44.4785 732.863C40.002 731.752 35.5971 734.08 34.6301 738.055Z" fill="url(#paint35_radial_0_9837)"/>
<path style="mix-blend-mode:multiply" opacity="0.4" d="M36.4923 739.059C35.9551 741.208 38.1755 743.607 41.4344 744.395C44.6933 745.183 47.7373 744.073 48.2745 741.924C48.8117 739.775 46.5914 737.376 43.3324 736.588C40.0735 735.8 37.0295 736.91 36.4923 739.059Z" fill="url(#paint36_radial_0_9837)"/>
<path d="M40.5392 739.488C42.1508 737.304 44.2279 737.375 45.0516 737.59C45.9111 737.841 47.7375 738.844 47.9524 741.53C48.0956 743.105 46.5557 743.392 45.2306 743.356C44.0488 743.32 42.9029 742.998 41.8643 742.425C40.7183 741.78 39.5723 740.742 40.5034 739.488L40.5392 739.488Z" fill="url(#paint37_linear_0_9837)"/>
<path opacity="0.5" d="M46.8425 632.373C45.5174 637.816 50.3879 643.69 57.7294 645.516C65.0709 647.307 72.0901 644.334 73.4152 638.891C74.7402 633.447 69.8698 627.574 62.5282 625.748C55.1867 623.921 48.1675 626.929 46.8425 632.373Z" fill="url(#paint38_radial_0_9837)"/>
<path style="mix-blend-mode:multiply" opacity="0.8" d="M51.9277 636.061C50.9608 640.037 53.7899 644.119 58.2665 645.229C62.743 646.34 67.1479 644.012 68.1148 640.037C69.0818 636.061 66.2526 631.979 61.7761 630.869C57.2996 629.759 52.8946 632.086 51.9277 636.061Z" fill="url(#paint39_radial_0_9837)"/>
<path style="mix-blend-mode:multiply" opacity="0.4" d="M53.7538 637.064C53.2166 639.213 55.437 641.613 58.6959 642.4C61.9548 643.188 64.9989 642.078 65.536 639.929C66.0732 637.781 63.8529 635.381 60.594 634.593C57.335 633.806 54.291 634.916 53.7538 637.064Z" fill="url(#paint40_radial_0_9837)"/>
<path d="M57.8014 637.494C59.413 635.31 61.4901 635.381 62.3138 635.596C63.1374 635.811 64.9997 636.85 65.2145 639.536C65.3578 641.111 63.8179 641.398 62.4928 641.362C61.311 641.326 60.165 641.004 59.1265 640.431C57.9805 639.786 56.8345 638.748 57.7656 637.459L57.8014 637.494Z" fill="url(#paint41_linear_0_9837)"/>
<path opacity="0.5" d="M103.963 710.695C107.866 714.742 115.459 713.739 120.866 708.475C126.274 703.21 127.492 695.69 123.588 691.643C119.685 687.596 112.092 688.599 106.685 693.863C101.277 699.128 100.059 706.648 103.963 710.695Z" fill="url(#paint42_radial_0_9837)"/>
<path style="mix-blend-mode:multiply" opacity="0.8" d="M109.764 708.367C112.594 711.303 117.607 711.053 120.902 707.866C124.197 704.642 124.591 699.664 121.726 696.764C118.897 693.827 113.883 694.078 110.588 697.265C107.293 700.488 106.899 705.466 109.764 708.367Z" fill="url(#paint43_radial_0_9837)"/>
<path style="mix-blend-mode:multiply" opacity="0.4" d="M111.59 707.328C113.13 708.904 116.318 708.331 118.717 706.003C121.117 703.675 121.797 700.488 120.257 698.913C118.717 697.337 115.53 697.91 113.13 700.238C110.731 702.565 110.051 705.753 111.59 707.328Z" fill="url(#paint44_radial_0_9837)"/>
<path d="M114.134 704.141C113.131 701.634 114.277 699.879 114.957 699.306C115.638 698.733 117.429 697.695 119.864 698.948C121.26 699.664 120.687 701.133 119.971 702.207C119.327 703.174 118.431 703.998 117.393 704.535C116.247 705.144 114.743 705.609 114.17 704.141L114.134 704.141Z" fill="url(#paint45_linear_0_9837)"/>
<path d="M55.9391 320.448C79.1813 206.995 150.484 128.602 150.484 128.602L146.652 124.376C146.652 124.376 67.6855 217.631 52.1072 316.223L55.9391 320.448Z" fill="url(#paint46_linear_0_9837)"/>
<path d="M192.742 117.787C192.742 117.787 206.028 79.8977 207.998 76.1733C210.003 72.4846 206.744 68.0797 202.876 66.683C199.009 65.2505 196.466 60.5233 193.816 59.7354C191.202 58.9475 181.067 65.7161 179.706 67.3276C178.345 68.9392 141.566 91.5367 139.596 99.2722C137.626 107.008 192.706 117.823 192.706 117.823L192.742 117.787Z" fill="url(#paint47_radial_0_9837)"/>
<path d="M152.131 142.963C152.131 142.963 166.778 150.412 181.963 136.553C197.147 122.729 194.855 100.311 192.706 90.5338C190.558 80.7571 189.591 76.4596 191.739 72.2337C193.888 68.0079 135.084 93.0407 133.723 108.655C132.363 124.269 135.908 134.153 152.131 142.927L152.131 142.963Z" fill="url(#paint48_radial_0_9837)"/>
<path d="M177.235 104.894C180.315 121.01 176.376 141.781 150.34 141.96C135.621 133.437 132.398 123.696 133.687 108.691C134.941 94.3299 184.935 71.9472 191.13 71.804L191.703 72.2695C191.703 72.2695 174.119 88.779 177.199 104.93L177.235 104.894Z" fill="url(#paint49_radial_0_9837)"/>
<path d="M146.579 144.181C146.579 144.181 158.684 150.197 166.24 140.599C173.797 131.002 188.802 102.817 213.262 95.5117C213.262 95.5117 193.422 97.1233 173.224 111.77C153.026 126.418 140.456 136.087 136.051 136.123C136.051 136.123 142.568 142.82 146.579 144.181Z" fill="url(#paint50_radial_0_9837)"/>
<path d="M140.492 137.341C140.492 137.341 143.643 131.933 141.029 126.597C138.415 121.297 124.842 105.504 100.525 105.468C100.525 105.468 117.5 108.548 122.657 117.286C127.814 125.988 126.704 138.487 140.492 137.341Z" fill="url(#paint51_radial_0_9837)"/>
<path d="M153.563 146.007C175.444 163.447 203.915 141.674 203.915 141.674C203.915 141.674 175.48 154.53 163.662 144.897L153.563 146.007Z" fill="url(#paint52_radial_0_9837)"/>
<path d="M153.456 189.733C153.456 189.733 144.431 174.835 148.765 161.119C148.765 161.119 131.073 182.427 130.966 194.138C130.858 206.851 119.398 231.454 136.445 239.011C148.729 244.454 153.456 189.769 153.456 189.769L153.456 189.733Z" fill="url(#paint53_radial_0_9837)"/>
<path d="M177.629 282.81C177.629 282.81 174.908 297.779 200.37 325.892C200.37 325.892 173.762 315.864 160.726 294.27C147.69 272.675 160.547 264.08 160.547 264.08L177.594 282.774L177.629 282.81Z" fill="url(#paint54_radial_0_9837)"/>
<path d="M-16.4734 324.066C50.9611 302.256 149.803 249.505 149.803 249.505L154.888 255.772C154.888 255.772 56.0107 308.488 -11.388 330.333L-16.4734 324.066Z" fill="url(#paint55_radial_0_9837)"/>
<path d="M139.561 282.057C139.561 282.057 147.117 286.355 158.219 282.917C169.321 279.479 132.9 253.264 132.9 253.264C132.9 253.264 126.74 258.135 127.779 261.25C128.781 264.366 127.958 273.892 139.561 282.057Z" fill="url(#paint56_radial_0_9837)"/>
<path d="M258.995 231.848C258.995 231.848 261.824 227.515 263.507 221.176C265.19 214.802 265.691 216.27 265.906 211.22C266.121 206.171 267.84 197.361 267.733 192.634C267.625 187.942 264.939 188.193 264.438 187.047C263.937 185.901 262.325 185.328 262.146 180.923C261.967 176.518 256.631 175.802 255.163 173.51C253.659 171.182 250.077 168.21 247.391 168.532C244.705 168.854 241.017 169.105 236.827 171.111C232.637 173.116 224.472 179.097 220.675 189.805C216.915 200.513 247.606 236.003 258.995 231.884L258.995 231.848Z" fill="url(#paint57_radial_0_9837)"/>
<path d="M245.063 197.791C245.063 197.791 245.564 190.879 243.452 189.339C241.339 187.764 240.98 187.656 240.014 185.687C239.082 183.753 237.113 181.353 231.311 181.926C225.51 182.499 223.11 182.284 221.427 184.003C219.744 185.722 218.956 192.455 220.567 193.673C222.179 194.926 223.253 197.361 223.432 197.612C223.612 197.863 245.063 197.791 245.063 197.791Z" fill="url(#paint58_radial_0_9837)"/>
<path d="M245.063 197.791C245.063 197.791 245.565 190.879 243.452 189.339C242.234 188.444 241.59 188.014 241.088 187.405C246.174 185.149 247.176 189.841 250.435 194.962C253.694 200.083 253.909 203.7 252.226 208.857C250.543 213.978 251.868 210.898 250.399 216.234C248.931 221.57 243.416 223.755 243.416 223.755C243.416 223.755 233.675 211.865 232.995 201.122C236.218 201.122 245.135 197.791 245.135 197.791L245.063 197.791Z" fill="url(#paint59_radial_0_9837)"/>
<path d="M241.303 219.637C241.662 219.565 247.571 216.521 246.246 204.811C244.921 193.1 241.303 189.698 234.714 192.205C228.125 194.747 225.546 198.329 225.152 200.979C224.758 203.629 230.345 221.857 241.303 219.601L241.303 219.637Z" fill="url(#paint60_radial_0_9837)"/>
<path d="M235.251 204.453C235.251 204.453 237.686 204.238 237.543 202.232C237.399 200.191 237.364 200.836 237.722 199.69C238.08 198.544 236.11 195.93 233.496 195.177C231.562 194.64 227.085 198.759 227.085 198.759L235.251 204.453Z" fill="url(#paint61_radial_0_9837)"/>
<path d="M250.22 188.659C251.939 190.951 252.906 191.667 256.165 193.995C259.424 196.323 262.181 198.042 262.504 203.521C262.826 209 263.184 206.708 264.079 212.582C264.939 218.419 261.895 219.314 258.672 221.212C255.485 223.11 254.016 224.149 250.542 226.799C247.104 229.413 241.303 231.24 241.303 231.24L238.259 230.13L233.997 229.055C233.997 229.055 234.069 228.805 234.212 228.303C230.129 227.086 229.127 222.788 226.799 220.998C223.719 218.67 223.54 213.37 223.54 213.37C225.044 216.485 227.121 216.772 236.074 221.391C236.253 220.747 236.432 220.031 236.647 219.314C238.08 219.816 239.655 219.959 241.374 219.637C241.482 219.637 241.876 219.422 242.449 218.956C242.986 221.857 243.416 223.719 243.416 223.755C243.416 223.755 248.931 221.535 250.399 216.234C251.867 210.898 250.542 213.978 252.226 208.857C253.909 203.736 253.694 200.119 250.435 194.962C248.752 192.312 247.677 189.769 246.317 188.265C247.498 187.549 249.146 187.191 250.256 188.659L250.22 188.659Z" fill="url(#paint62_radial_0_9837)"/>
<path d="M225.904 198.902C225.904 198.902 227.946 196.681 231.491 197.254C235.036 197.827 228.268 206.315 228.268 206.315L225.904 198.902Z" fill="url(#paint63_radial_0_9837)"/>
<path d="M223.182 192.849C223.182 192.849 229.556 190.02 238.438 191.417C238.438 191.417 226.154 198.078 224.865 201.193C223.576 204.309 223.182 192.849 223.182 192.849Z" fill="url(#paint64_radial_0_9837)"/>
<path d="M230.129 175.767C230.129 175.767 226.333 179.241 222.752 181.175C219.171 183.108 216.234 184.398 216.664 184.863C217.058 185.293 218.92 191.668 218.92 191.668C218.92 191.668 222 191.095 222 190.378C222.107 186.439 230.165 175.767 230.165 175.767L230.129 175.767Z" fill="url(#paint65_radial_0_9837)"/>
<path d="M238.188 167.351C238.188 167.351 238.51 168.747 238.188 170.466C237.758 170.645 237.328 170.825 236.862 171.039C234.678 172.078 231.419 174.262 228.267 177.557C226.942 178.56 224.865 179.992 222.752 181.138C220.031 182.607 217.703 183.717 216.915 184.362C216.808 179.921 224.507 169.75 227.909 165.453C231.598 160.833 236.683 157.001 238.188 167.351Z" fill="url(#paint66_radial_0_9837)"/>
<path d="M219.602 185.687C221.285 186.833 222.144 190.092 223.72 193.136C225.618 196.86 230.56 208.392 232.781 212.296C235.037 216.163 236.398 215.268 240.659 218.24C244.921 221.249 245.852 225.045 245.852 225.045C245.852 225.045 240.731 224.436 235.037 223.576C232.566 223.218 230.059 221.714 227.624 219.745C226.442 219.315 223.434 217.954 221.965 215.053C220.103 211.436 209.109 198.973 209.109 198.973C209.109 198.973 215.018 181.712 218.778 179.635C218.778 179.635 218.921 182.392 219.602 185.651L219.602 185.687Z" fill="url(#paint67_radial_0_9837)"/>
<path d="M247.749 228.518C252.154 231.419 256.201 232.852 259.03 231.813C259.03 231.813 259.424 231.204 260.033 230.094C260.212 229.736 260.427 229.306 260.678 228.841C261.609 226.978 262.719 224.292 263.543 221.105C263.65 220.675 263.757 220.353 263.865 219.995C264.008 219.458 264.151 218.992 264.295 218.562C264.581 217.703 264.796 217.023 265.011 216.485C265.584 214.91 265.835 214.301 265.978 211.149C265.978 210.684 266.049 210.182 266.085 209.681C266.336 206.637 266.909 202.769 267.339 199.224C267.41 198.543 267.482 197.863 267.554 197.218C267.554 197.039 267.589 196.86 267.625 196.681C267.661 196.108 267.697 195.571 267.733 195.07C267.733 194.891 267.733 194.676 267.768 194.497C267.768 193.816 267.804 193.207 267.768 192.634C267.661 188.516 265.62 188.194 264.76 187.406C264.653 187.298 264.545 187.155 264.474 187.012C263.972 185.866 262.361 185.293 262.182 180.888C263.22 181.604 264.724 182.607 266.801 184.039C272.89 188.194 274.644 194.031 274.788 201.874C274.931 209.753 273.964 210.254 275.396 216.987C276.471 222.18 274.143 229.485 269.81 232.78C266.801 235.036 261.609 236.934 259.711 240.121C258.565 242.055 258.529 244.562 257.454 246.603C256.416 248.645 255.055 250.221 253.587 252.011C250.65 255.664 246.854 258.35 242.198 259.066C237.006 259.854 232.35 260.714 227.301 262.433C226.477 262.719 225.331 263.077 224.077 263.364C223.648 262.826 222.931 262.218 221.857 261.43C220.675 260.606 219.314 259.89 217.846 259.138C218.992 259.711 220.066 260.32 221.033 260.928C214.122 261.43 210.003 257.562 210.003 257.562C210.003 257.562 216.557 246.926 220.926 243.237C223.146 241.375 231.204 235.896 239.262 230.452L241.267 231.168C241.267 231.168 244.598 230.13 247.714 228.447L247.749 228.518Z" fill="url(#paint68_radial_0_9837)"/>
<path d="M209.859 154.136C213.405 151.092 216.556 151.522 221.892 153.313C227.228 155.103 230.165 153.599 233.245 153.205C236.325 152.811 241.517 152.202 244.848 158.899C248.178 165.596 249.754 165.095 252.547 168.998C253.192 169.894 253.622 170.896 253.944 171.899C252.154 170.001 249.503 168.211 247.391 168.461C245.6 168.676 243.344 168.855 240.801 169.571C238.903 166.456 236.289 162.624 234.068 161.048C230.201 158.326 218.848 170.861 218.848 170.861L199.653 189.877C199.653 189.877 196.394 185.615 197.468 184.505C198.543 183.431 201.085 178.489 201.802 174.048C202.518 169.607 201.085 167.494 201.085 167.494C196.501 161.227 206.314 157.145 209.859 154.101L209.859 154.136Z" fill="url(#paint69_radial_0_9837)"/>
<path d="M226.441 164.379C226.441 164.379 214.73 171.792 209.896 175.087C205.025 178.381 198.472 182.392 196.287 185.436C194.103 188.48 208.141 201.015 208.141 201.015L211.579 201.767C211.579 201.767 219.35 177.02 221.857 171.971C224.328 166.921 226.513 164.379 226.513 164.379L226.441 164.379Z" fill="url(#paint70_radial_0_9837)"/>
<path d="M176.805 258.314C193.35 263.113 205.455 271.743 224.292 263.793C224.149 263.578 224.041 263.399 224.041 263.399L227.049 262.54C227.049 262.54 227.193 262.504 227.228 262.468C232.314 260.749 236.934 259.889 242.126 259.102C246.782 258.385 250.578 255.699 253.515 252.047C254.947 250.256 256.344 248.68 257.382 246.639C258.457 244.562 258.492 242.091 259.638 240.157C261.322 237.364 265.548 235.537 268.592 233.603C270.561 238.51 276.184 255.52 261.644 264.76C244.776 275.468 246.245 267.947 236.504 274.322C226.727 280.696 199.868 284.886 184.791 273.785C169.678 262.683 161.334 255.198 152.166 255.019C152.166 255.019 159.042 253.228 176.769 258.35L176.805 258.314Z" fill="url(#paint71_radial_0_9837)"/>
<path d="M233.532 159.902C238.474 158.899 241.089 167.207 241.698 169.392C240.552 169.643 239.37 170.037 238.116 170.538C235.216 164.521 231.169 160.26 223.147 173.188C214.731 186.725 212.94 199.546 212.94 199.546L211.973 198.292C211.973 198.292 217.811 177.736 220.353 171.756C222.86 165.775 227.838 161.084 233.532 159.938L233.532 159.902Z" fill="url(#paint72_radial_0_9837)"/>
<path d="M152.274 254.948L152.238 254.948C161.406 255.127 169.751 262.611 184.863 273.713C190.092 277.581 196.753 279.586 203.593 280.303C196.753 284.17 186.94 288.11 176.555 286.928C157.36 284.779 157.968 283.776 150.663 277.366C143.393 270.956 141.674 265.87 139.418 264.653C137.161 263.435 137.627 260.176 139.453 258.779C140.778 257.777 144.252 254.876 152.274 254.912L152.274 254.948Z" fill="url(#paint73_radial_0_9837)"/>
<path d="M130.178 225.546C135.442 202.304 145.47 185.759 149.731 179.491L149.874 181.998C151.486 180.602 152.525 180.029 152.525 180.029L156.177 182.607L155.64 183.753C157.144 184.398 158.183 185.615 158.792 188.624C160.188 195.356 157.717 200.263 163.304 206.458C168.891 212.654 178.632 218.205 186.045 225.653C193.494 233.102 191.094 232.279 194.64 239.298C198.185 246.317 204.381 259.245 211.006 262.648C214.05 264.223 216.235 265.334 218.061 265.907C202.626 269.81 191.453 262.576 176.805 258.35C159.759 253.408 152.775 254.876 152.238 254.984C144.252 254.984 140.742 257.849 139.417 258.851C138.379 259.639 137.806 261.036 137.877 262.325C137.877 262.325 137.877 262.325 137.842 262.289C137.698 262.11 137.555 261.967 137.376 261.788C135.084 259.138 125.737 246.783 130.106 225.582L130.178 225.546Z" fill="url(#paint74_radial_0_9837)"/>
<path d="M203.45 158.756C203.45 158.756 198.758 162.588 201.086 167.53C203.45 172.472 202.125 176.842 200.585 180.853C199.045 184.864 193.53 195.607 188.803 194.963C184.075 194.318 184.827 193.709 183.717 195.285C182.607 196.861 173.654 207.891 173.654 207.891L159.723 180.494L158.076 179.527C158.076 179.527 161.048 181.569 167.172 176.555C173.296 171.541 186.439 160.296 193.566 159.473C200.692 158.649 203.45 158.792 203.45 158.792L203.45 158.756Z" fill="url(#paint75_radial_0_9837)"/>
<path d="M175.694 205.384C178.416 202.017 182.964 196.359 183.752 195.285C184.862 193.709 184.075 194.318 188.838 194.962C192.419 195.464 196.394 189.519 198.793 184.827C200.262 185.257 201.694 186.117 203.127 187.442C207.245 191.238 208.606 195.32 211.077 197.183C213.548 199.045 218.204 205.384 221.498 211.579C224.793 217.775 227.515 225.08 237.435 229.951C247.355 234.821 246.101 234.356 246.101 234.356L244.92 235.251C244.92 235.251 234.928 237.113 225.223 246.031C220.388 250.471 216.234 254.124 213.226 256.703C209.609 254.661 205.884 251.94 203.055 247.212C197.719 238.331 192.24 226.012 187.262 222.466C182.248 218.921 177.951 210.147 175.981 205.957C175.909 205.778 175.802 205.563 175.694 205.348L175.694 205.384Z" fill="url(#paint76_radial_0_9837)"/>
<path d="M255.485 223.004C255.485 223.004 256.595 224.938 258.457 228.304C260.319 231.67 259.639 233.246 256.201 235.108C252.799 236.97 253.157 235.86 250.507 237.615C247.857 239.37 246.961 237.866 244.848 235.251C242.771 232.637 238.653 230.918 236.182 230.13C233.711 229.342 227.336 224.937 223.755 217.13C220.174 209.323 217.488 203.737 213.906 200.155C210.325 196.574 208.356 194.963 206.816 192.778C205.312 190.594 204.058 188.731 202.267 186.726C202.267 186.726 205.777 189.841 208.785 193.781C211.794 197.756 213.906 198.938 216.019 201.194C218.132 203.45 225.51 216.45 228.124 219.888C230.738 223.326 233.245 229.88 239.512 230.274C245.779 230.668 250.901 226.406 250.901 226.406L255.449 222.932L255.485 223.004Z" fill="url(#paint77_radial_0_9837)"/>
<path d="M223.827 265.727C223.827 265.727 226.799 264.975 221.821 261.466C216.843 257.956 208.356 256.094 203.02 247.248C197.684 238.367 192.204 226.047 187.227 222.502C182.213 218.957 177.915 210.183 175.946 205.993C172.257 198.186 169.786 188.839 163.555 182.571C162.301 181.318 160.797 180.423 159.472 179.277C157.861 177.844 156.715 175.409 154.781 174.406C150.053 171.864 148.12 179.42 147.94 182.679C147.69 187.37 149.946 186.403 153.599 187.693C157.968 189.232 159.4 192.205 159.365 196.395C159.365 200.155 160.797 203.665 163.268 206.422C168.855 212.618 178.596 218.169 186.009 225.618C193.458 233.067 191.058 232.243 194.604 239.262C198.149 246.281 204.345 259.21 210.97 262.612C217.56 266.014 220.21 267.303 223.791 265.727L223.827 265.727Z" fill="url(#paint78_radial_0_9837)"/>
<path d="M231.527 197.254C232.995 196.896 233.532 198.902 233.89 199.51C234.284 200.191 235.717 202.447 234.893 204.739C234.069 207.031 235.645 206.064 234.105 208.392C233.281 209.645 232.35 210.003 231.67 210.075C230.954 208.643 230.094 206.852 229.235 204.99C230.954 202.59 234.105 197.72 231.527 197.254Z" fill="url(#paint79_radial_0_9837)"/>
<path d="M139.561 282.058C139.561 282.058 131.038 271.923 134.368 258.744C137.663 245.565 140.528 250.185 142.032 241.303C143.536 232.422 143.823 224.651 149.911 223.29C149.911 223.29 140.277 220.783 137.412 230.488C134.583 240.193 138.093 239.262 131.36 246.138C124.627 253.014 120.115 261.859 127.958 272.138C135.801 282.416 139.561 282.058 139.561 282.058Z" fill="url(#paint80_radial_0_9837)"/>
<path d="M40.4681 223.72C40.5756 224.938 40.683 225.618 40.683 225.618C40.683 225.618 40.3965 225.009 40.4681 223.72Z" fill="url(#paint81_radial_0_9837)"/>
<path d="M40.4682 223.72C40.3965 225.009 40.683 225.618 40.683 225.618C40.683 225.618 27.8264 210.684 22.4188 191.202C17.0111 171.72 11.1379 176.089 6.91207 162.302C2.65041 148.514 1.57603 111.591 3.40246 109.228C5.2647 106.9 7.69993 95.5117 11.4602 91.8947C15.2563 88.2776 22.7053 79.4678 31.5509 68.939C40.3965 58.3744 59.6635 55.6168 68.5092 49.8511C77.3548 44.0495 92.396 27.5042 93.3271 17.3335C93.9001 54.3276 60.8454 102.603 48.2036 144.288C37.1734 180.637 39.6803 215.411 40.4682 223.72Z" fill="url(#paint82_radial_0_9837)"/>
<path d="M105.647 123.875C100.884 151.415 79.5036 181.425 58.3385 199.761C43.1541 212.904 40.6831 220.497 40.4682 223.72C39.6445 215.375 37.1735 180.637 48.2037 144.288C60.8454 102.603 93.9001 54.2918 93.3271 17.3335C93.5778 23.9588 96.6935 31.1212 98.6632 37.3884C107.473 65.5368 109.299 94.6164 105.682 123.875L105.647 123.875Z" fill="url(#paint83_radial_0_9837)"/>
<path d="M86.0579 228.555C87.562 209.109 101.815 190.558 101.815 190.558C101.815 190.558 97.5178 202.913 99.0577 214.695C100.598 226.478 110.16 242.808 109.873 254.447C109.587 266.086 107.402 281.521 83.9808 297.35C60.5595 313.179 45.9839 315.256 39.108 319.339C76.5318 292.086 84.5896 247.965 86.0937 228.519L86.0579 228.555Z" fill="url(#paint84_radial_0_9837)"/>
<path d="M41.5072 301.719C38.7855 290.761 28.0776 270.706 53.2894 238.367C53.2894 238.367 56.9423 233.067 72.0551 222.288C87.1679 211.508 86.9888 200.156 94.4378 195.357L101.887 190.558C101.887 190.558 87.5976 209.109 86.1293 228.555C84.6252 248.001 76.5674 292.121 39.1436 319.375C39.1436 319.375 44.2647 312.714 41.543 301.755L41.5072 301.719Z" fill="url(#paint85_radial_0_9837)"/>
<path d="M171.792 324.889C185.508 308.487 210.04 301.002 210.04 301.002C210.04 301.002 198.329 309.311 192.205 320.806C186.081 332.302 184.219 352.966 176.555 363.208C168.891 373.45 157.109 385.806 126.096 385.054C95.0823 384.301 80.7932 376.888 72.0192 376.136C122.801 375.599 158.076 341.327 171.792 324.925L171.792 324.889Z" fill="url(#paint86_radial_0_9837)"/>
<path d="M85.4127 361.883C89.9609 350.352 93.1482 325.641 136.266 312.785C136.266 312.785 142.891 310.385 163.233 310.349C183.574 310.314 190.629 300.071 200.334 300.537L210.039 301.002C210.039 301.002 185.508 308.487 171.792 324.889C158.076 341.291 122.801 375.564 72.0189 376.101C72.0189 376.101 80.8288 373.415 85.3769 361.883L85.4127 361.883Z" fill="url(#paint87_radial_0_9837)"/>
<path d="M163.377 450.018L163.556 451.522C164.451 451.414 254.877 439.775 306.769 424.519L306.339 423.051C254.591 438.271 164.272 449.91 163.377 450.018Z" fill="url(#paint88_radial_0_9837)"/>
<path d="M296.241 427.671C300.574 424.949 308.811 424.949 313.789 424.376C319.805 423.696 325.965 423.445 332.053 423.803C337.425 424.161 343.334 424.555 347.166 419.971C352.502 413.597 339.287 412.415 335.634 412.343C320.593 412.021 308.488 419.971 296.241 427.671Z" fill="url(#paint89_radial_0_9837)"/>
<path d="M91.3216 473.296L92.5392 474.227C93.1122 473.511 148.55 401.134 174.263 353.575L172.902 352.859C147.225 400.31 91.8588 472.58 91.2858 473.296L91.3216 473.296Z" fill="url(#paint90_radial_0_9837)"/>
<path d="M162.732 370.514C162.732 370.514 168.999 357.729 172.186 345.875C175.373 334.022 176.949 327.217 183.682 324.925C190.415 322.633 198.15 333.055 194.533 338.641C190.916 344.228 165.095 366.682 162.732 370.514Z" fill="url(#paint91_radial_0_9837)"/>
<path d="M119.864 479.098L119.721 480.638C120.616 480.709 211.508 488.158 265.405 484.04L265.298 482.5C211.508 486.618 120.759 479.17 119.864 479.098Z" fill="url(#paint92_radial_0_9837)"/>
<path d="M244.956 483.503C244.956 483.503 256.774 482.5 266.48 479.778C276.185 477.056 281.664 475.337 286.427 478.99C291.19 482.643 287.645 492.205 282.058 492.026C276.471 491.847 248.717 483.503 244.992 483.467" fill="url(#paint93_radial_0_9837)"/>
<path d="M130.428 439.345L129.389 438.235C130.07 437.626 197.11 375.814 242.126 345.911L242.986 347.2C198.042 377.068 131.108 438.772 130.428 439.381L130.428 439.345Z" fill="url(#paint94_radial_0_9837)"/>
<path d="M236.432 351.677C236.432 351.677 240.801 348.847 244.919 347.164C249.038 345.481 251.401 344.622 252.082 342.043C252.726 339.5 248.894 337.101 246.996 338.677C245.098 340.252 237.721 350.638 236.432 351.677Z" fill="url(#paint95_radial_0_9837)"/>
<path d="M266.874 514.909C286.821 523.862 306.482 517.416 325.534 511.185C329.689 509.824 333.986 508.427 338.212 507.209C340.862 506.457 343.512 505.598 346.198 504.703C351.427 503.019 356.834 501.265 362.134 500.262C363.782 499.94 365.501 499.832 367.148 499.689C371.302 499.367 375.636 499.008 379.575 496.072L377.713 493.565C374.49 495.964 370.801 496.251 366.898 496.573C365.179 496.716 363.388 496.86 361.561 497.182C356.082 498.185 350.567 499.975 345.231 501.694C342.581 502.554 339.967 503.413 337.352 504.165C333.091 505.383 328.757 506.815 324.567 508.176C305.265 514.515 287 520.46 268.199 512.044L266.91 514.909L266.874 514.909Z" fill="url(#paint96_linear_0_9837)"/>
<path d="M431.824 465.094C426.058 450.698 411.411 442.783 375.42 457.538C329.186 472.651 328.9 507.747 328.577 509.681C329.437 510.254 336.026 514.659 357.872 509.645C377.998 505.097 413.345 491.13 431.824 465.094Z" fill="url(#paint97_radial_0_9837)"/>
<path d="M328.577 509.681C349.778 537.901 386.808 526.942 407.615 515.375C430.105 502.232 436.372 488.444 434.797 475.337C434.474 472.257 433.436 468.64 431.824 465.094C413.345 491.13 377.998 505.097 357.872 509.645C336.026 514.658 329.437 510.254 328.577 509.681Z" fill="url(#paint98_radial_0_9837)"/>
<path style="mix-blend-mode:soft-light" d="M328.577 509.681C328.577 509.681 329.759 510.254 332.087 510.755C333.233 510.97 334.701 511.256 336.492 511.292C338.282 511.399 340.36 511.328 342.795 511.149C345.23 511.006 347.916 510.54 350.96 510.003C353.932 509.287 357.263 508.642 360.737 507.603C362.492 507.102 364.282 506.636 366.109 506.063C367.935 505.419 369.797 504.774 371.695 504.13C375.527 502.948 379.252 501.121 383.119 499.581C386.951 498.006 390.64 496.108 394.329 494.425C397.874 492.526 401.276 490.557 404.535 488.766C407.651 486.725 410.587 484.791 413.238 483C415.959 481.281 418.108 479.133 420.185 477.449C422.191 475.659 424.053 474.191 425.45 472.579C426.882 471.039 428.064 469.678 428.995 468.568C430.893 466.348 431.824 465.094 431.86 465.094C431.86 465.094 431 466.527 429.317 469.034C428.458 470.287 427.383 471.755 426.058 473.474C424.805 475.265 423.05 476.912 421.116 478.81C419.111 480.637 417.069 482.893 414.384 484.755C411.769 486.689 408.94 488.838 405.824 490.879C402.565 492.741 399.163 494.783 395.582 496.752C391.858 498.507 388.133 500.477 384.265 502.124C380.29 503.592 376.458 505.419 372.555 506.565C370.621 507.209 368.723 507.854 366.861 508.463C364.998 509.036 363.136 509.501 361.346 509.967C357.8 511.041 354.398 511.507 351.354 512.08C348.274 512.438 345.517 512.796 343.045 512.796C340.61 512.868 338.462 512.689 336.671 512.366C334.88 512.116 333.376 511.65 332.23 511.292C329.867 510.468 328.685 509.609 328.685 509.609L328.577 509.681Z" fill="url(#paint99_radial_0_9837)"/>
<path d="M-229.341 435.549C-205.311 447.868 -181.066 459.758 -156.678 471.325C-121.116 488.193 -82.9404 500.62 -48.9903 520.603C-1.68232 548.429 33.736 590.723 54.3281 641.255C61.7412 659.376 69.1186 677.497 76.5317 695.653C77.6419 698.339 80.0413 695.546 79.2534 693.612C52.9314 629.15 29.6892 573.426 -27.6104 530.022C-61.6679 504.237 -102.709 491.488 -141.135 473.868C-170.501 460.403 -199.509 446.113 -228.267 431.359C-230.2 430.356 -231.06 434.689 -229.377 435.585L-229.341 435.549Z" fill="url(#paint100_linear_0_9837)"/>
<path d="M-112.127 491.451C-59.0177 489.159 -7.3048 459.256 28.6149 421.761C29.7251 420.615 29.0805 416.281 27.6122 417.821C-7.87779 454.887 -59.1968 484.719 -111.769 487.011C-113.596 487.082 -113.811 491.523 -112.127 491.451Z" fill="url(#paint101_linear_0_9837)"/>
<path d="M14.1826 535.966C67.2922 533.674 119.005 503.771 154.925 466.276C156.035 465.13 155.39 460.796 153.922 462.336C118.432 499.402 67.1132 529.234 14.5407 531.526C12.7143 531.597 12.4994 536.038 14.1826 535.966Z" fill="url(#paint102_linear_0_9837)"/>
<path d="M-42.9737 524.291C43.7995 545.922 133.044 562.073 222.288 568.304C223.541 568.376 223.864 563.971 222.646 563.864C133.438 557.597 44.1576 541.445 -42.6155 519.85C-43.6541 519.6 -44.2987 523.969 -42.9737 524.291Z" fill="url(#paint103_linear_0_9837)"/>
<path d="M83.3004 712.45C125.702 693.935 159.151 635.74 126.812 600.823C104 576.148 67.0058 573.498 41.6149 575.145C33.8794 575.647 26.4305 577.617 19.5545 580.804C24.9263 587.823 85.6998 668.007 83.3004 712.414L83.3004 712.45Z" fill="url(#paint104_radial_0_9837)"/>
<path d="M62.744 718.037C69.6558 717.356 76.6034 715.387 83.3003 712.45C85.6997 668.043 24.9263 587.859 19.5544 580.84C10.279 585.173 2.11384 591.727 -4.18912 600.107C-19.8749 620.878 -36.2769 652.142 -26.1062 677.891C-5.94392 728.96 62.744 718.037 62.744 718.037Z" fill="url(#paint105_radial_0_9837)"/>
<path style="mix-blend-mode:soft-light" d="M83.3004 712.45C83.3004 712.45 83.3003 711.877 83.2287 710.767C83.1929 709.692 83.1571 708.081 82.9064 706.075C82.7632 704.07 82.2976 701.67 81.7962 698.913C81.4739 697.552 81.1158 696.084 80.7577 694.579C80.3279 693.075 79.8982 691.464 79.4326 689.816C78.4299 686.522 77.2123 682.976 75.8156 679.288C74.3831 675.599 72.7357 671.767 70.9809 667.792C67.4713 659.877 63.2813 651.676 58.7689 643.619C54.364 635.489 49.6726 627.539 45.1245 620.162C40.5405 612.784 36.2788 605.908 32.4111 600.143C28.5792 594.341 25.4277 589.47 23.1357 586.14C20.8437 582.774 19.5545 580.875 19.5545 580.875C19.5545 580.875 21.0944 582.63 23.6371 585.782C26.144 588.969 29.7968 593.481 33.8794 599.14C37.962 604.798 42.725 611.388 47.4164 618.729C52.1079 626.071 56.9783 633.985 61.5265 642.115C65.9314 650.316 70.0498 658.696 73.4878 666.717C75.2426 670.728 76.6751 674.704 77.9643 678.5C79.2177 682.296 80.2921 685.949 81.1516 689.351C81.5455 691.07 81.9037 692.717 82.226 694.257C82.4767 695.833 82.7273 697.337 82.9422 698.734C83.2645 701.563 83.5152 704.034 83.5152 706.075C83.6585 708.117 83.4794 709.692 83.4078 710.802C83.3362 711.877 83.3004 712.45 83.3004 712.45Z" fill="url(#paint106_radial_0_9837)"/>
<path d="M61.4542 395.976C34.595 358.839 -36.9938 344.12 -58.1588 387.74C-71.9465 416.139 -61.6684 449.408 -51.5335 471.075C-49.4206 475.587 -46.7347 479.67 -43.619 483.43C-42.294 483.179 16.653 471.075 61.4542 396.012L61.4542 395.976Z" fill="url(#paint107_radial_0_9837)"/>
<path d="M-14.0734 502.59C9.45531 509.215 42.4026 512.904 61.4905 495.177C99.3083 460.116 66.2894 403.748 66.2894 403.748C64.9285 401.062 63.317 398.448 61.4905 395.941C16.6894 471.003 -42.2576 483.108 -43.5827 483.359C-35.9905 492.527 -25.7482 499.259 -14.0375 502.554L-14.0734 502.59Z" fill="url(#paint108_radial_0_9837)"/>
<path style="mix-blend-mode:soft-light" d="M-43.6187 483.394C-43.6187 483.394 -43.0816 483.251 -42.1146 482.965C-41.1119 482.678 -39.7152 482.177 -37.9246 481.532C-36.134 480.852 -33.9494 480.1 -31.5142 478.989C-29.079 477.951 -26.3572 476.662 -23.4206 475.265C-20.484 473.832 -17.3683 472.149 -14.1452 470.287C-10.958 468.353 -7.55579 466.348 -4.18944 464.056C-0.75146 461.907 2.57909 459.293 6.01707 456.786C9.49086 454.279 12.6781 451.342 16.0803 448.621C19.3034 445.72 22.4907 442.783 25.6064 439.847C28.5788 436.767 31.5154 433.759 34.3446 430.822C37.0305 427.742 39.609 424.77 42.08 421.94C44.5511 419.111 46.5924 416.211 48.6337 413.668C50.6034 411.054 52.5372 408.762 54.0055 406.541C55.5455 404.357 56.8705 402.459 57.9449 400.883C60.1652 397.767 61.4545 395.977 61.4545 395.977C61.4545 395.977 60.3801 397.875 58.4821 401.205C57.5151 402.853 56.3333 404.858 54.9724 407.186C53.6832 409.549 51.9284 412.021 50.0661 414.706C48.1323 417.392 46.2343 420.401 43.8706 423.373C41.507 426.31 39.0002 429.425 36.4217 432.648C33.5925 435.692 30.6917 438.808 27.7551 441.995C24.6395 445.004 21.4163 448.012 18.1574 450.984C14.6836 453.742 11.3889 456.678 7.8793 459.185C4.36969 461.728 0.895909 464.235 -2.64951 466.348C-6.08749 468.64 -9.66871 470.466 -12.9993 472.293C-16.3656 474.012 -19.5887 475.551 -22.6327 476.877C-25.6768 478.202 -28.506 479.276 -31.0486 480.1C-33.5555 480.995 -35.8475 481.604 -37.6739 482.141C-41.3984 483.144 -43.5829 483.43 -43.5829 483.43L-43.6187 483.394Z" fill="url(#paint109_radial_0_9837)"/>
<path d="M55.1518 524.65C57.9093 528.876 61.4547 532.421 65.8596 534.928C85.8787 546.245 128.674 532.457 144.826 520.209C153.6 513.548 160.225 504.882 162.624 494.711C165.418 482.893 162.159 470.681 155.713 460.188C125.881 504.953 69.0111 521.212 55.1518 524.614L55.1518 524.65Z" fill="url(#paint110_radial_0_9837)"/>
<path d="M155.676 460.223C153.707 457 151.415 453.956 148.908 451.127C138.093 438.951 122.371 429.819 105.181 429.389C80.4706 428.78 59.413 445.827 51.2478 466.705C45.2313 482.033 44.4793 508.391 55.1513 524.65C69.0107 521.247 125.881 504.953 155.712 460.223L155.676 460.223Z" fill="url(#paint111_radial_0_9837)"/>
<path style="mix-blend-mode:soft-light" d="M55.1518 524.65C55.1518 524.65 56.9782 524.041 60.1297 523.003C63.317 522 67.7577 520.317 73.0937 518.276C75.7438 517.237 78.6088 516.091 81.5812 514.766C84.5895 513.512 87.6693 511.973 90.8924 510.504C94.0797 508.929 97.3744 507.317 100.633 505.526C103.928 503.772 107.223 501.945 110.41 499.904C113.705 498.042 116.785 495.857 119.9 493.816C122.944 491.703 125.881 489.482 128.71 487.369C131.396 485.042 134.118 483 136.553 480.816C138.917 478.595 141.209 476.518 143.214 474.513C145.112 472.4 146.903 470.538 148.514 468.855C150.126 467.171 151.272 465.524 152.346 464.235C154.459 461.656 155.677 460.188 155.677 460.188C155.677 460.188 154.638 461.8 152.848 464.593C151.881 465.954 150.878 467.744 149.41 469.571C147.977 471.397 146.33 473.474 144.503 475.695C142.605 477.843 140.385 480.064 138.129 482.463C135.801 484.791 133.151 487.083 130.465 489.482C127.636 491.703 124.771 494.102 121.655 496.251C118.504 498.364 115.388 500.62 112.057 502.554C108.799 504.595 105.396 506.422 102.066 508.176C98.7353 509.967 95.2973 511.435 92.0742 512.975C85.4848 515.876 79.146 518.096 73.7025 519.887C68.2233 521.642 63.5677 522.788 60.3087 523.54C58.6972 523.934 57.3721 524.149 56.5126 524.328C55.6173 524.507 55.1518 524.578 55.1518 524.578L55.1518 524.65Z" fill="url(#paint112_radial_0_9837)"/>
<path d="M299.713 554.052C298.532 538.008 293.017 522.358 282.237 510.612C261.502 488.086 227.337 485.687 200.657 498.328C190.808 502.984 139.74 541.84 138.343 556.237C157.789 562.898 233.783 585.316 299.713 554.052Z" fill="url(#paint113_radial_0_9837)"/>
<path d="M138.988 559.174C154.602 581.378 170.754 604.154 193.53 618.909C204.668 626.107 217.811 631.013 231.026 632.41C244.849 633.843 258.673 631.479 270.312 623.923C288.003 612.463 297.386 591.154 299.499 570.168C300.036 564.832 300.108 559.425 299.714 554.053C233.819 585.281 157.825 562.898 138.344 556.237C138.236 557.383 138.415 558.386 138.952 559.21L138.988 559.174Z" fill="url(#paint114_radial_0_9837)"/>
<path style="mix-blend-mode:soft-light" d="M138.379 556.237C138.379 556.237 140.886 556.918 145.22 558.1C147.404 558.708 150.054 559.353 153.098 560.105C156.142 560.857 159.616 561.538 163.376 562.397C167.173 563.113 171.255 564.009 175.624 564.653C179.993 565.441 184.613 565.942 189.376 566.623C194.139 567.16 199.117 567.733 204.131 568.055C209.18 568.378 214.301 568.664 219.423 568.593C224.544 568.807 229.665 568.521 234.714 568.378C239.764 568.163 244.67 567.554 249.469 567.124C254.196 566.301 258.816 565.799 263.149 564.975C267.447 564.009 271.565 563.221 275.29 562.254C278.978 561.108 282.381 560.141 285.389 559.281C288.433 558.422 290.904 557.276 293.017 556.524C297.243 554.948 299.678 554.053 299.678 554.053C299.678 554.053 297.35 555.163 293.268 557.097C291.19 557.992 288.755 559.353 285.783 560.392C282.81 561.466 279.48 562.684 275.791 563.937C272.067 565.083 267.948 566.05 263.651 567.196C259.318 568.234 254.662 568.951 249.863 569.81C245.028 570.312 240.015 570.992 234.929 571.278C229.808 571.493 224.615 571.887 219.423 571.708C214.23 571.708 209.037 571.314 203.952 570.956C198.866 570.562 193.853 569.953 189.054 569.309C184.255 568.593 179.599 567.84 175.266 566.874C170.897 566.05 166.814 564.975 163.018 564.08C155.498 562.146 149.338 560.141 145.041 558.673C142.892 557.956 141.244 557.312 140.098 556.882C138.952 556.452 138.379 556.201 138.379 556.201L138.379 556.237Z" fill="url(#paint115_radial_0_9837)"/>
</g>
<defs>
<linearGradient id="paint0_linear_0_9837" x1="86.0845" y1="717.383" x2="170.479" y2="628.574" gradientUnits="userSpaceOnUse">
<stop stop-color="#77815E"/>
<stop offset="0.2" stop-color="#838D68"/>
<stop offset="1" stop-color="#A19C7C"/>
</linearGradient>
<linearGradient id="paint1_linear_0_9837" x1="297.056" y1="757.603" x2="317.556" y2="736.03" gradientUnits="userSpaceOnUse">
<stop stop-color="#77815E"/>
<stop offset="0.2" stop-color="#838D68"/>
<stop offset="1" stop-color="#A19C7C"/>
</linearGradient>
<linearGradient id="paint2_linear_0_9837" x1="213.81" y1="726.515" x2="229.327" y2="710.186" gradientUnits="userSpaceOnUse">
<stop stop-color="#77815E"/>
<stop offset="0.2" stop-color="#838D68"/>
<stop offset="1" stop-color="#A19C7C"/>
</linearGradient>
<linearGradient id="paint3_linear_0_9837" x1="199.828" y1="727.505" x2="203.701" y2="723.429" gradientUnits="userSpaceOnUse">
<stop stop-color="#77815E"/>
<stop offset="0.2" stop-color="#838D68"/>
<stop offset="1" stop-color="#A19C7C"/>
</linearGradient>
<linearGradient id="paint4_linear_0_9837" x1="198.769" y1="726.747" x2="217.716" y2="706.809" gradientUnits="userSpaceOnUse">
<stop stop-color="#77815E"/>
<stop offset="0.2" stop-color="#838D68"/>
<stop offset="1" stop-color="#A19C7C"/>
</linearGradient>
<linearGradient id="paint5_linear_0_9837" x1="153.386" y1="725.167" x2="159.331" y2="718.911" gradientUnits="userSpaceOnUse">
<stop stop-color="#77815E"/>
<stop offset="0.2" stop-color="#838D68"/>
<stop offset="1" stop-color="#A19C7C"/>
</linearGradient>
<linearGradient id="paint6_linear_0_9837" x1="103.758" y1="709.131" x2="106.546" y2="706.197" gradientUnits="userSpaceOnUse">
<stop stop-color="#77815E"/>
<stop offset="0.2" stop-color="#838D68"/>
<stop offset="1" stop-color="#A19C7C"/>
</linearGradient>
<linearGradient id="paint7_linear_0_9837" x1="97.7012" y1="707.031" x2="122.445" y2="680.993" gradientUnits="userSpaceOnUse">
<stop stop-color="#77815E"/>
<stop offset="0.2" stop-color="#838D68"/>
<stop offset="1" stop-color="#A19C7C"/>
</linearGradient>
<linearGradient id="paint8_linear_0_9837" x1="22.0166" y1="656.55" x2="36.2757" y2="641.545" gradientUnits="userSpaceOnUse">
<stop stop-color="#77815E"/>
<stop offset="0.2" stop-color="#838D68"/>
<stop offset="1" stop-color="#A19C7C"/>
</linearGradient>
<linearGradient id="paint9_linear_0_9837" x1="5.17799" y1="662.779" x2="17.6115" y2="649.696" gradientUnits="userSpaceOnUse">
<stop stop-color="#77815E"/>
<stop offset="0.2" stop-color="#838D68"/>
<stop offset="1" stop-color="#A19C7C"/>
</linearGradient>
<linearGradient id="paint10_linear_0_9837" x1="240.384" y1="726.572" x2="287.083" y2="677.43" gradientUnits="userSpaceOnUse">
<stop stop-color="#77815E"/>
<stop offset="0.2" stop-color="#838D68"/>
<stop offset="1" stop-color="#A19C7C"/>
</linearGradient>
<linearGradient id="paint11_linear_0_9837" x1="213.563" y1="707.852" x2="245.51" y2="674.234" gradientUnits="userSpaceOnUse">
<stop stop-color="#77815E"/>
<stop offset="0.2" stop-color="#838D68"/>
<stop offset="1" stop-color="#A19C7C"/>
</linearGradient>
<linearGradient id="paint12_linear_0_9837" x1="222.018" y1="751.41" x2="233.637" y2="739.182" gradientUnits="userSpaceOnUse">
<stop stop-color="#77815E"/>
<stop offset="0.2" stop-color="#838D68"/>
<stop offset="1" stop-color="#A19C7C"/>
</linearGradient>
<linearGradient id="paint13_linear_0_9837" x1="142.319" y1="708.376" x2="194.52" y2="653.444" gradientUnits="userSpaceOnUse">
<stop stop-color="#77815E"/>
<stop offset="0.2" stop-color="#838D68"/>
<stop offset="1" stop-color="#A19C7C"/>
</linearGradient>
<linearGradient id="paint14_linear_0_9837" x1="188.129" y1="761.493" x2="205.62" y2="743.088" gradientUnits="userSpaceOnUse">
<stop stop-color="#77815E"/>
<stop offset="0.2" stop-color="#838D68"/>
<stop offset="1" stop-color="#A19C7C"/>
</linearGradient>
<linearGradient id="paint15_linear_0_9837" x1="124.733" y1="756.878" x2="145.234" y2="735.305" gradientUnits="userSpaceOnUse">
<stop stop-color="#77815E"/>
<stop offset="0.2" stop-color="#838D68"/>
<stop offset="1" stop-color="#A19C7C"/>
</linearGradient>
<linearGradient id="paint16_linear_0_9837" x1="56.1194" y1="669.738" x2="93.568" y2="630.331" gradientUnits="userSpaceOnUse">
<stop stop-color="#77815E"/>
<stop offset="0.2" stop-color="#838D68"/>
<stop offset="1" stop-color="#A19C7C"/>
</linearGradient>
<linearGradient id="paint17_linear_0_9837" x1="25.2731" y1="712.753" x2="48.2652" y2="688.558" gradientUnits="userSpaceOnUse">
<stop stop-color="#77815E"/>
<stop offset="0.2" stop-color="#838D68"/>
<stop offset="1" stop-color="#A19C7C"/>
</linearGradient>
<radialGradient id="paint18_radial_0_9837" cx="0" cy="0" r="1" gradientUnits="userSpaceOnUse" gradientTransform="translate(335.46 401.334) rotate(-42.39) scale(13.4317 8.83667)">
<stop stop-color="#7B5516"/>
<stop offset="0.11" stop-color="#825B1B"/>
<stop offset="0.27" stop-color="#976D2A"/>
<stop offset="0.48" stop-color="#B98B42"/>
<stop offset="0.7" stop-color="#E8B364"/>
<stop offset="0.71" stop-color="#EBB666"/>
<stop offset="0.76" stop-color="#EBB768" stop-opacity="0.88"/>
<stop offset="0.85" stop-color="#ECB96D" stop-opacity="0.58"/>
<stop offset="0.98" stop-color="#EDBE75" stop-opacity="0.09"/>
<stop offset="1" stop-color="#EEBF77" stop-opacity="0"/>
</radialGradient>
<radialGradient id="paint19_radial_0_9837" cx="0" cy="0" r="1" gradientUnits="userSpaceOnUse" gradientTransform="translate(193.301 502.511) rotate(-42.38) scale(8.12867 6.46125)">
<stop stop-color="#7B5516"/>
<stop offset="0.08" stop-color="#825B1B"/>
<stop offset="0.21" stop-color="#976D2A"/>
<stop offset="0.37" stop-color="#B98B42"/>
<stop offset="0.54" stop-color="#E8B364"/>
<stop offset="0.55" stop-color="#EBB666"/>
<stop offset="0.61" stop-color="#EBB768" stop-opacity="0.88"/>
<stop offset="0.73" stop-color="#ECB96D" stop-opacity="0.58"/>
<stop offset="0.9" stop-color="#EDBE75" stop-opacity="0.09"/>
<stop offset="0.94" stop-color="#EEBF77" stop-opacity="0"/>
</radialGradient>
<radialGradient id="paint20_radial_0_9837" cx="0" cy="0" r="1" gradientUnits="userSpaceOnUse" gradientTransform="translate(-222.484 762.875) rotate(-42.4) scale(5.78332 3.58015)">
<stop stop-color="#7B5516"/>
<stop offset="0.11" stop-color="#825B1B"/>
<stop offset="0.27" stop-color="#976D2A"/>
<stop offset="0.48" stop-color="#B98B42"/>
<stop offset="0.7" stop-color="#E8B364"/>
<stop offset="0.71" stop-color="#EBB666"/>
<stop offset="0.76" stop-color="#EBB768" stop-opacity="0.88"/>
<stop offset="0.85" stop-color="#ECB96D" stop-opacity="0.58"/>
<stop offset="0.98" stop-color="#EDBE75" stop-opacity="0.09"/>
<stop offset="1" stop-color="#EEBF77" stop-opacity="0"/>
</radialGradient>
<linearGradient id="paint21_linear_0_9837" x1="74.6192" y1="553.888" x2="75.4819" y2="546.031" gradientUnits="userSpaceOnUse">
<stop stop-color="#9B7E5B"/>
<stop offset="0.21" stop-color="#937856"/>
<stop offset="0.51" stop-color="#80694B"/>
<stop offset="0.87" stop-color="#604F39"/>
<stop offset="1" stop-color="#534531"/>
</linearGradient>
<radialGradient id="paint22_radial_0_9837" cx="0" cy="0" r="1" gradientUnits="userSpaceOnUse" gradientTransform="translate(268.507 520.7) rotate(-42.39) scale(13.4317 8.83667)">
<stop stop-color="#7B5516"/>
<stop offset="0.11" stop-color="#825B1B"/>
<stop offset="0.27" stop-color="#976D2A"/>
<stop offset="0.48" stop-color="#B98B42"/>
<stop offset="0.7" stop-color="#E8B364"/>
<stop offset="0.71" stop-color="#EBB666"/>
<stop offset="0.76" stop-color="#EBB768" stop-opacity="0.88"/>
<stop offset="0.85" stop-color="#ECB96D" stop-opacity="0.58"/>
<stop offset="0.98" stop-color="#EDBE75" stop-opacity="0.09"/>
<stop offset="1" stop-color="#EEBF77" stop-opacity="0"/>
</radialGradient>
<radialGradient id="paint23_radial_0_9837" cx="0" cy="0" r="1" gradientUnits="userSpaceOnUse" gradientTransform="translate(127.099 621.334) rotate(-42.38) scale(8.12867 6.46125)">
<stop stop-color="#7B5516"/>
<stop offset="0.08" stop-color="#825B1B"/>
<stop offset="0.21" stop-color="#976D2A"/>
<stop offset="0.37" stop-color="#B98B42"/>
<stop offset="0.54" stop-color="#E8B364"/>
<stop offset="0.55" stop-color="#EBB666"/>
<stop offset="0.61" stop-color="#EBB768" stop-opacity="0.88"/>
<stop offset="0.73" stop-color="#ECB96D" stop-opacity="0.58"/>
<stop offset="0.9" stop-color="#EDBE75" stop-opacity="0.09"/>
<stop offset="0.94" stop-color="#EEBF77" stop-opacity="0"/>
</radialGradient>
<radialGradient id="paint24_radial_0_9837" cx="0" cy="0" r="1" gradientUnits="userSpaceOnUse" gradientTransform="translate(-286.411 880.333) rotate(-42.4) scale(5.78332 3.58015)">
<stop stop-color="#7B5516"/>
<stop offset="0.11" stop-color="#825B1B"/>
<stop offset="0.27" stop-color="#976D2A"/>
<stop offset="0.48" stop-color="#B98B42"/>
<stop offset="0.7" stop-color="#E8B364"/>
<stop offset="0.71" stop-color="#EBB666"/>
<stop offset="0.76" stop-color="#EBB768" stop-opacity="0.88"/>
<stop offset="0.85" stop-color="#ECB96D" stop-opacity="0.58"/>
<stop offset="0.98" stop-color="#EDBE75" stop-opacity="0.09"/>
<stop offset="1" stop-color="#EEBF77" stop-opacity="0"/>
</radialGradient>
<linearGradient id="paint25_linear_0_9837" x1="9.0015" y1="672.395" x2="9.86423" y2="664.538" gradientUnits="userSpaceOnUse">
<stop stop-color="#9B7E5B"/>
<stop offset="0.21" stop-color="#937856"/>
<stop offset="0.51" stop-color="#80694B"/>
<stop offset="0.87" stop-color="#604F39"/>
<stop offset="1" stop-color="#534531"/>
</linearGradient>
<radialGradient id="paint26_radial_0_9837" cx="0" cy="0" r="1" gradientUnits="userSpaceOnUse" gradientTransform="translate(393.517 458.264) rotate(-42.39) scale(13.4318 8.83668)">
<stop stop-color="#7B5516"/>
<stop offset="0.11" stop-color="#825B1B"/>
<stop offset="0.27" stop-color="#976D2A"/>
<stop offset="0.48" stop-color="#B98B42"/>
<stop offset="0.7" stop-color="#E8B364"/>
<stop offset="0.71" stop-color="#EBB666"/>
<stop offset="0.76" stop-color="#EBB768" stop-opacity="0.88"/>
<stop offset="0.85" stop-color="#ECB96D" stop-opacity="0.58"/>
<stop offset="0.98" stop-color="#EDBE75" stop-opacity="0.09"/>
<stop offset="1" stop-color="#EEBF77" stop-opacity="0"/>
</radialGradient>
<radialGradient id="paint27_radial_0_9837" cx="0" cy="0" r="1" gradientUnits="userSpaceOnUse" gradientTransform="translate(251.496 559.657) rotate(-42.38) scale(8.12866 6.46125)">
<stop stop-color="#7B5516"/>
<stop offset="0.08" stop-color="#825B1B"/>
<stop offset="0.21" stop-color="#976D2A"/>
<stop offset="0.37" stop-color="#B98B42"/>
<stop offset="0.54" stop-color="#E8B364"/>
<stop offset="0.55" stop-color="#EBB666"/>
<stop offset="0.61" stop-color="#EBB768" stop-opacity="0.88"/>
<stop offset="0.73" stop-color="#ECB96D" stop-opacity="0.58"/>
<stop offset="0.9" stop-color="#EDBE75" stop-opacity="0.09"/>
<stop offset="0.94" stop-color="#EEBF77" stop-opacity="0"/>
</radialGradient>
<radialGradient id="paint28_radial_0_9837" cx="0" cy="0" r="1" gradientUnits="userSpaceOnUse" gradientTransform="translate(-163.685 820.756) rotate(-42.4) scale(5.78332 3.58015)">
<stop stop-color="#7B5516"/>
<stop offset="0.11" stop-color="#825B1B"/>
<stop offset="0.27" stop-color="#976D2A"/>
<stop offset="0.48" stop-color="#B98B42"/>
<stop offset="0.7" stop-color="#E8B364"/>
<stop offset="0.71" stop-color="#EBB666"/>
<stop offset="0.76" stop-color="#EBB768" stop-opacity="0.88"/>
<stop offset="0.85" stop-color="#ECB96D" stop-opacity="0.58"/>
<stop offset="0.98" stop-color="#EDBE75" stop-opacity="0.09"/>
<stop offset="1" stop-color="#EEBF77" stop-opacity="0"/>
</radialGradient>
<linearGradient id="paint29_linear_0_9837" x1="133.062" y1="611.296" x2="133.924" y2="603.438" gradientUnits="userSpaceOnUse">
<stop stop-color="#9B7E5B"/>
<stop offset="0.21" stop-color="#937856"/>
<stop offset="0.51" stop-color="#80694B"/>
<stop offset="0.87" stop-color="#604F39"/>
<stop offset="1" stop-color="#534531"/>
</linearGradient>
<radialGradient id="paint30_radial_0_9837" cx="0" cy="0" r="1" gradientUnits="userSpaceOnUse" gradientTransform="translate(99.3379 591.161) rotate(7.46999) scale(13.4318 8.83666)">
<stop stop-color="#7B5516"/>
<stop offset="0.11" stop-color="#825B1B"/>
<stop offset="0.27" stop-color="#976D2A"/>
<stop offset="0.48" stop-color="#B98B42"/>
<stop offset="0.7" stop-color="#E8B364"/>
<stop offset="0.71" stop-color="#EBB666"/>
<stop offset="0.76" stop-color="#EBB768" stop-opacity="0.88"/>
<stop offset="0.85" stop-color="#ECB96D" stop-opacity="0.58"/>
<stop offset="0.98" stop-color="#EDBE75" stop-opacity="0.09"/>
<stop offset="1" stop-color="#EEBF77" stop-opacity="0"/>
</radialGradient>
<radialGradient id="paint31_radial_0_9837" cx="0" cy="0" r="1" gradientUnits="userSpaceOnUse" gradientTransform="translate(39.478 551.447) rotate(7.47) scale(8.12866 6.46125)">
<stop stop-color="#7B5516"/>
<stop offset="0.08" stop-color="#825B1B"/>
<stop offset="0.21" stop-color="#976D2A"/>
<stop offset="0.37" stop-color="#B98B42"/>
<stop offset="0.54" stop-color="#E8B364"/>
<stop offset="0.55" stop-color="#EBB666"/>
<stop offset="0.61" stop-color="#EBB768" stop-opacity="0.88"/>
<stop offset="0.73" stop-color="#ECB96D" stop-opacity="0.58"/>
<stop offset="0.9" stop-color="#EDBE75" stop-opacity="0.09"/>
<stop offset="0.94" stop-color="#EEBF77" stop-opacity="0"/>
</radialGradient>
<radialGradient id="paint32_radial_0_9837" cx="0" cy="0" r="1" gradientUnits="userSpaceOnUse" gradientTransform="translate(-111.742 416.619) rotate(7.46999) scale(5.78333 3.58015)">
<stop stop-color="#7B5516"/>
<stop offset="0.11" stop-color="#825B1B"/>
<stop offset="0.27" stop-color="#976D2A"/>
<stop offset="0.48" stop-color="#B98B42"/>
<stop offset="0.7" stop-color="#E8B364"/>
<stop offset="0.71" stop-color="#EBB666"/>
<stop offset="0.76" stop-color="#EBB768" stop-opacity="0.88"/>
<stop offset="0.85" stop-color="#ECB96D" stop-opacity="0.58"/>
<stop offset="0.98" stop-color="#EDBE75" stop-opacity="0.09"/>
<stop offset="1" stop-color="#EEBF77" stop-opacity="0"/>
</radialGradient>
<linearGradient id="paint33_linear_0_9837" x1="2.36684" y1="493.796" x2="8.89463" y2="489.384" gradientUnits="userSpaceOnUse">
<stop stop-color="#9B7E5B"/>
<stop offset="0.21" stop-color="#937856"/>
<stop offset="0.51" stop-color="#80694B"/>
<stop offset="0.87" stop-color="#604F39"/>
<stop offset="1" stop-color="#534531"/>
</linearGradient>
<radialGradient id="paint34_radial_0_9837" cx="0" cy="0" r="1" gradientUnits="userSpaceOnUse" gradientTransform="translate(-243.07 847.487) rotate(-166.26) scale(13.4318 8.8367)">
<stop stop-color="#7B5516"/>
<stop offset="0.11" stop-color="#825B1B"/>
<stop offset="0.27" stop-color="#976D2A"/>
<stop offset="0.48" stop-color="#B98B42"/>
<stop offset="0.7" stop-color="#E8B364"/>
<stop offset="0.71" stop-color="#EBB666"/>
<stop offset="0.76" stop-color="#EBB768" stop-opacity="0.88"/>
<stop offset="0.85" stop-color="#ECB96D" stop-opacity="0.58"/>
<stop offset="0.98" stop-color="#EDBE75" stop-opacity="0.09"/>
<stop offset="1" stop-color="#EEBF77" stop-opacity="0"/>
</radialGradient>
<radialGradient id="paint35_radial_0_9837" cx="0" cy="0" r="1" gradientUnits="userSpaceOnUse" gradientTransform="translate(-77.3877 808.049) rotate(-166.26) scale(8.12868 6.46126)">
<stop stop-color="#7B5516"/>
<stop offset="0.08" stop-color="#825B1B"/>
<stop offset="0.21" stop-color="#976D2A"/>
<stop offset="0.37" stop-color="#B98B42"/>
<stop offset="0.54" stop-color="#E8B364"/>
<stop offset="0.55" stop-color="#EBB666"/>
<stop offset="0.61" stop-color="#EBB768" stop-opacity="0.88"/>
<stop offset="0.73" stop-color="#ECB96D" stop-opacity="0.58"/>
<stop offset="0.9" stop-color="#EDBE75" stop-opacity="0.09"/>
<stop offset="0.94" stop-color="#EEBF77" stop-opacity="0"/>
</radialGradient>
<radialGradient id="paint36_radial_0_9837" cx="0" cy="0" r="1" gradientUnits="userSpaceOnUse" gradientTransform="translate(380.993 633.025) rotate(-166.27) scale(5.78331 3.58014)">
<stop stop-color="#7B5516"/>
<stop offset="0.11" stop-color="#825B1B"/>
<stop offset="0.27" stop-color="#976D2A"/>
<stop offset="0.48" stop-color="#B98B42"/>
<stop offset="0.7" stop-color="#E8B364"/>
<stop offset="0.71" stop-color="#EBB666"/>
<stop offset="0.76" stop-color="#EBB768" stop-opacity="0.88"/>
<stop offset="0.85" stop-color="#ECB96D" stop-opacity="0.58"/>
<stop offset="0.98" stop-color="#EDBE75" stop-opacity="0.09"/>
<stop offset="1" stop-color="#EEBF77" stop-opacity="0"/>
</radialGradient>
<linearGradient id="paint37_linear_0_9837" x1="48.2381" y1="736.386" x2="41.2331" y2="740.049" gradientUnits="userSpaceOnUse">
<stop stop-color="#9B7E5B"/>
<stop offset="0.21" stop-color="#937856"/>
<stop offset="0.51" stop-color="#80694B"/>
<stop offset="0.87" stop-color="#604F39"/>
<stop offset="1" stop-color="#534531"/>
</linearGradient>
<radialGradient id="paint38_radial_0_9837" cx="0" cy="0" r="1" gradientUnits="userSpaceOnUse" gradientTransform="translate(-226.052 746.261) rotate(-166.26) scale(13.4317 8.83668)">
<stop stop-color="#7B5516"/>
<stop offset="0.11" stop-color="#825B1B"/>
<stop offset="0.27" stop-color="#976D2A"/>
<stop offset="0.48" stop-color="#B98B42"/>
<stop offset="0.7" stop-color="#E8B364"/>
<stop offset="0.71" stop-color="#EBB666"/>
<stop offset="0.76" stop-color="#EBB768" stop-opacity="0.88"/>
<stop offset="0.85" stop-color="#ECB96D" stop-opacity="0.58"/>
<stop offset="0.98" stop-color="#EDBE75" stop-opacity="0.09"/>
<stop offset="1" stop-color="#EEBF77" stop-opacity="0"/>
</radialGradient>
<radialGradient id="paint39_radial_0_9837" cx="0" cy="0" r="1" gradientUnits="userSpaceOnUse" gradientTransform="translate(-60.2285 706.491) rotate(-166.26) scale(8.12866 6.46124)">
<stop stop-color="#7B5516"/>
<stop offset="0.08" stop-color="#825B1B"/>
<stop offset="0.21" stop-color="#976D2A"/>
<stop offset="0.37" stop-color="#B98B42"/>
<stop offset="0.54" stop-color="#E8B364"/>
<stop offset="0.55" stop-color="#EBB666"/>
<stop offset="0.61" stop-color="#EBB768" stop-opacity="0.88"/>
<stop offset="0.73" stop-color="#ECB96D" stop-opacity="0.58"/>
<stop offset="0.9" stop-color="#EDBE75" stop-opacity="0.09"/>
<stop offset="0.94" stop-color="#EEBF77" stop-opacity="0"/>
</radialGradient>
<radialGradient id="paint40_radial_0_9837" cx="0" cy="0" r="1" gradientUnits="userSpaceOnUse" gradientTransform="translate(398.533 530.357) rotate(-166.27) scale(5.78331 3.58014)">
<stop stop-color="#7B5516"/>
<stop offset="0.11" stop-color="#825B1B"/>
<stop offset="0.27" stop-color="#976D2A"/>
<stop offset="0.48" stop-color="#B98B42"/>
<stop offset="0.7" stop-color="#E8B364"/>
<stop offset="0.71" stop-color="#EBB666"/>
<stop offset="0.76" stop-color="#EBB768" stop-opacity="0.88"/>
<stop offset="0.85" stop-color="#ECB96D" stop-opacity="0.58"/>
<stop offset="0.98" stop-color="#EDBE75" stop-opacity="0.09"/>
<stop offset="1" stop-color="#EEBF77" stop-opacity="0"/>
</radialGradient>
<linearGradient id="paint41_linear_0_9837" x1="65.523" y1="634.396" x2="58.5179" y2="638.058" gradientUnits="userSpaceOnUse">
<stop stop-color="#9B7E5B"/>
<stop offset="0.21" stop-color="#937856"/>
<stop offset="0.51" stop-color="#80694B"/>
<stop offset="0.87" stop-color="#604F39"/>
<stop offset="1" stop-color="#534531"/>
</linearGradient>
<radialGradient id="paint42_radial_0_9837" cx="0" cy="0" r="1" gradientUnits="userSpaceOnUse" gradientTransform="translate(197.201 841.363) rotate(135.84) scale(13.4317 8.83667)">
<stop stop-color="#7B5516"/>
<stop offset="0.11" stop-color="#825B1B"/>
<stop offset="0.27" stop-color="#976D2A"/>
<stop offset="0.48" stop-color="#B98B42"/>
<stop offset="0.7" stop-color="#E8B364"/>
<stop offset="0.71" stop-color="#EBB666"/>
<stop offset="0.76" stop-color="#EBB768" stop-opacity="0.88"/>
<stop offset="0.85" stop-color="#ECB96D" stop-opacity="0.58"/>
<stop offset="0.98" stop-color="#EDBE75" stop-opacity="0.09"/>
<stop offset="1" stop-color="#EEBF77" stop-opacity="0"/>
</radialGradient>
<radialGradient id="paint43_radial_0_9837" cx="0" cy="0" r="1" gradientUnits="userSpaceOnUse" gradientTransform="translate(164.598 772.34) rotate(135.85) scale(8.12867 6.46125)">
<stop stop-color="#7B5516"/>
<stop offset="0.08" stop-color="#825B1B"/>
<stop offset="0.21" stop-color="#976D2A"/>
<stop offset="0.37" stop-color="#B98B42"/>
<stop offset="0.54" stop-color="#E8B364"/>
<stop offset="0.55" stop-color="#EBB666"/>
<stop offset="0.61" stop-color="#EBB768" stop-opacity="0.88"/>
<stop offset="0.73" stop-color="#ECB96D" stop-opacity="0.58"/>
<stop offset="0.9" stop-color="#EDBE75" stop-opacity="0.09"/>
<stop offset="0.94" stop-color="#EEBF77" stop-opacity="0"/>
</radialGradient>
<radialGradient id="paint44_radial_0_9837" cx="0" cy="0" r="1" gradientUnits="userSpaceOnUse" gradientTransform="translate(26.7454 554.888) rotate(135.82) scale(5.78333 3.58016)">
<stop stop-color="#7B5516"/>
<stop offset="0.11" stop-color="#825B1B"/>
<stop offset="0.27" stop-color="#976D2A"/>
<stop offset="0.48" stop-color="#B98B42"/>
<stop offset="0.7" stop-color="#E8B364"/>
<stop offset="0.71" stop-color="#EBB666"/>
<stop offset="0.76" stop-color="#EBB768" stop-opacity="0.88"/>
<stop offset="0.85" stop-color="#ECB96D" stop-opacity="0.58"/>
<stop offset="0.98" stop-color="#EDBE75" stop-opacity="0.09"/>
<stop offset="1" stop-color="#EEBF77" stop-opacity="0"/>
</radialGradient>
<linearGradient id="paint45_linear_0_9837" x1="116.689" y1="695.897" x2="116.069" y2="703.778" gradientUnits="userSpaceOnUse">
<stop stop-color="#9B7E5B"/>
<stop offset="0.21" stop-color="#937856"/>
<stop offset="0.51" stop-color="#80694B"/>
<stop offset="0.87" stop-color="#604F39"/>
<stop offset="1" stop-color="#534531"/>
</linearGradient>
<linearGradient id="paint46_linear_0_9837" x1="115.793" y1="231.664" x2="84.5639" y2="210.209" gradientUnits="userSpaceOnUse">
<stop offset="0.01" stop-color="#A5B49F"/>
<stop offset="0.41" stop-color="#647764"/>
<stop offset="0.8" stop-color="#465B48"/>
<stop offset="1" stop-color="#334026"/>
</linearGradient>
<radialGradient id="paint47_radial_0_9837" cx="0" cy="0" r="1" gradientUnits="userSpaceOnUse" gradientTransform="translate(210.374 46.7483) rotate(-153.56) scale(90.4976 90.4976)">
<stop stop-color="#FCFDF9"/>
<stop offset="0.24" stop-color="#F7F8DE"/>
<stop offset="0.46" stop-color="#F3E2CD"/>
<stop offset="0.8" stop-color="#D4B47F"/>
<stop offset="1" stop-color="#C5A877"/>
</radialGradient>
<radialGradient id="paint48_radial_0_9837" cx="0" cy="0" r="1" gradientUnits="userSpaceOnUse" gradientTransform="translate(170.116 111.405) rotate(-118.25) scale(33.4129 33.4129)">
<stop stop-color="#C5A877"/>
<stop offset="0.2" stop-color="#D4B47F"/>
<stop offset="0.54" stop-color="#F3E2CD"/>
<stop offset="0.76" stop-color="#F7F8DE"/>
<stop offset="1" stop-color="#FCFDF9"/>
</radialGradient>
<radialGradient id="paint49_radial_0_9837" cx="0" cy="0" r="1" gradientUnits="userSpaceOnUse" gradientTransform="translate(171.346 88.4239) rotate(-118.25) scale(44.8012 44.8012)">
<stop stop-color="#FCFDF9"/>
<stop offset="0.24" stop-color="#F7F8DE"/>
<stop offset="0.46" stop-color="#F3E2CD"/>
<stop offset="0.8" stop-color="#D4B47F"/>
<stop offset="1" stop-color="#C5A877"/>
</radialGradient>
<radialGradient id="paint50_radial_0_9837" cx="0" cy="0" r="1" gradientUnits="userSpaceOnUse" gradientTransform="translate(275.013 64.7023) rotate(-118.25) scale(46.0546 75.9901)">
<stop offset="0.01" stop-color="#A5B49F"/>
<stop offset="0.41" stop-color="#647764"/>
<stop offset="0.8" stop-color="#465B48"/>
<stop offset="1" stop-color="#334026"/>
</radialGradient>
<radialGradient id="paint51_radial_0_9837" cx="0" cy="0" r="1" gradientUnits="userSpaceOnUse" gradientTransform="translate(89.342 167.22) rotate(-117.65) scale(54.4705 102.404)">
<stop stop-color="#334026"/>
<stop offset="0.2" stop-color="#465B48"/>
<stop offset="0.59" stop-color="#647764"/>
<stop offset="0.99" stop-color="#A5B49F"/>
</radialGradient>
<radialGradient id="paint52_radial_0_9837" cx="0" cy="0" r="1" gradientUnits="userSpaceOnUse" gradientTransform="translate(231.385 114.002) rotate(-118.25) scale(17.9419 47.1873)">
<stop offset="0.01" stop-color="#A5B49F"/>
<stop offset="0.41" stop-color="#647764"/>
<stop offset="0.8" stop-color="#465B48"/>
<stop offset="1" stop-color="#334026"/>
</radialGradient>
<radialGradient id="paint53_radial_0_9837" cx="0" cy="0" r="1" gradientUnits="userSpaceOnUse" gradientTransform="translate(164.851 228.757) rotate(-122.15) scale(80.2553 80.2553)">
<stop stop-color="#334026"/>
<stop offset="0.2" stop-color="#465B48"/>
<stop offset="0.59" stop-color="#647764"/>
<stop offset="0.99" stop-color="#A5B49F"/>
</radialGradient>
<radialGradient id="paint54_radial_0_9837" cx="0" cy="0" r="1" gradientUnits="userSpaceOnUse" gradientTransform="translate(161.218 273.72) rotate(-122.15) scale(35.9555 35.9555)">
<stop stop-color="#334026"/>
<stop offset="0.2" stop-color="#465B48"/>
<stop offset="0.59" stop-color="#647764"/>
<stop offset="0.99" stop-color="#A5B49F"/>
</radialGradient>
<radialGradient id="paint55_radial_0_9837" cx="0" cy="0" r="1" gradientUnits="userSpaceOnUse" gradientTransform="translate(125.002 253.933) rotate(-98.79) scale(135.442 135.442)">
<stop stop-color="#334026"/>
<stop offset="0.2" stop-color="#465B48"/>
<stop offset="0.59" stop-color="#647764"/>
<stop offset="0.99" stop-color="#A5B49F"/>
</radialGradient>
<radialGradient id="paint56_radial_0_9837" cx="0" cy="0" r="1" gradientUnits="userSpaceOnUse" gradientTransform="translate(136.244 255.789) rotate(-122.15) scale(48.5256 48.5256)">
<stop stop-color="#334026"/>
<stop offset="0.2" stop-color="#465B48"/>
<stop offset="0.59" stop-color="#647764"/>
<stop offset="0.99" stop-color="#A5B49F"/>
</radialGradient>
<radialGradient id="paint57_radial_0_9837" cx="0" cy="0" r="1" gradientUnits="userSpaceOnUse" gradientTransform="translate(238.639 201.277) rotate(-118.96) scale(59.0903 34.2723)">
<stop stop-color="#C5A877"/>
<stop offset="0.2" stop-color="#D4B47F"/>
<stop offset="0.54" stop-color="#F3E2CD"/>
<stop offset="0.76" stop-color="#F7F8DE"/>
<stop offset="1" stop-color="#FCFDF9"/>
</radialGradient>
<radialGradient id="paint58_radial_0_9837" cx="0" cy="0" r="1" gradientUnits="userSpaceOnUse" gradientTransform="translate(227.32 192.056) rotate(-83.77) scale(15.4351 21.4548)">
<stop stop-color="#C5A877"/>
<stop offset="0.2" stop-color="#D4B47F"/>
<stop offset="0.54" stop-color="#F3E2CD"/>
<stop offset="0.76" stop-color="#F7F8DE"/>
<stop offset="1" stop-color="#FCFDF9"/>
</radialGradient>
<radialGradient id="paint59_radial_0_9837" cx="0" cy="0" r="1" gradientUnits="userSpaceOnUse" gradientTransform="translate(234.401 206.117) rotate(-98.79) scale(21.8097 15.703)">
<stop stop-color="#C5A877"/>
<stop offset="0.2" stop-color="#D4B47F"/>
<stop offset="0.54" stop-color="#F3E2CD"/>
<stop offset="0.76" stop-color="#F7F8DE"/>
<stop offset="1" stop-color="#FCFDF9"/>
</radialGradient>
<radialGradient id="paint60_radial_0_9837" cx="0" cy="0" r="1" gradientUnits="userSpaceOnUse" gradientTransform="translate(236.831 202.733) rotate(-97.66) scale(32.0878 25.6702)">
<stop stop-color="#C5A877"/>
<stop offset="0.2" stop-color="#D4B47F"/>
<stop offset="0.54" stop-color="#F3E2CD"/>
<stop offset="0.76" stop-color="#F7F8DE"/>
<stop offset="1" stop-color="#FCFDF9"/>
</radialGradient>
<radialGradient id="paint61_radial_0_9837" cx="0" cy="0" r="1" gradientUnits="userSpaceOnUse" gradientTransform="translate(231.807 200.346) rotate(-98.79) scale(12.9998 12.9999)">
<stop stop-color="#C5A877"/>
<stop offset="0.2" stop-color="#D4B47F"/>
<stop offset="0.54" stop-color="#F3E2CD"/>
<stop offset="0.76" stop-color="#F7F8DE"/>
<stop offset="1" stop-color="#FCFDF9"/>
</radialGradient>
<radialGradient id="paint62_radial_0_9837" cx="0" cy="0" r="1" gradientUnits="userSpaceOnUse" gradientTransform="translate(251.33 203.646) rotate(-98.79) scale(32.6608 31.0278)">
<stop stop-color="#C5A877"/>
<stop offset="0.2" stop-color="#D4B47F"/>
<stop offset="0.54" stop-color="#F3E2CD"/>
<stop offset="0.76" stop-color="#F7F8DE"/>
<stop offset="1" stop-color="#FCFDF9"/>
</radialGradient>
<radialGradient id="paint63_radial_0_9837" cx="0" cy="0" r="1" gradientUnits="userSpaceOnUse" gradientTransform="translate(227.323 209.901) rotate(-1.72001) scale(17.1898 20.2841)">
<stop stop-color="#C5A877"/>
<stop offset="0.2" stop-color="#D4B47F"/>
<stop offset="0.54" stop-color="#F3E2CD"/>
<stop offset="0.76" stop-color="#F7F8DE"/>
<stop offset="1" stop-color="#FCFDF9"/>
</radialGradient>
<radialGradient id="paint64_radial_0_9837" cx="0" cy="0" r="1" gradientUnits="userSpaceOnUse" gradientTransform="translate(231.465 195.325) rotate(-98.79) scale(6.51782 6.51783)">
<stop stop-color="#F3E2CD"/>
<stop offset="0.76" stop-color="#F7F8DE"/>
<stop offset="1" stop-color="#FCFDF9"/>
</radialGradient>
<radialGradient id="paint65_radial_0_9837" cx="0" cy="0" r="1" gradientUnits="userSpaceOnUse" gradientTransform="translate(224.23 183.217) rotate(-98.79) scale(7.19827 7.19826)">
<stop stop-color="#F3E2CD"/>
<stop offset="0.76" stop-color="#F7F8DE"/>
<stop offset="1" stop-color="#FCFDF9"/>
</radialGradient>
<radialGradient id="paint66_radial_0_9837" cx="0" cy="0" r="1" gradientUnits="userSpaceOnUse" gradientTransform="translate(213.175 190) rotate(-98.79) scale(51.2115 51.2116)">
<stop stop-color="#C5A877"/>
<stop offset="0.2" stop-color="#D4B47F"/>
<stop offset="0.54" stop-color="#F3E2CD"/>
<stop offset="0.76" stop-color="#F7F8DE"/>
<stop offset="1" stop-color="#FCFDF9"/>
</radialGradient>
<radialGradient id="paint67_radial_0_9837" cx="0" cy="0" r="1" gradientUnits="userSpaceOnUse" gradientTransform="translate(212.057 211.838) rotate(-117.87) scale(49.7074 39.766)">
<stop stop-color="#C5A877"/>
<stop offset="0.2" stop-color="#D4B47F"/>
<stop offset="0.54" stop-color="#F3E2CD"/>
<stop offset="0.76" stop-color="#F7F8DE"/>
<stop offset="1" stop-color="#FCFDF9"/>
</radialGradient>
<radialGradient id="paint68_radial_0_9837" cx="0" cy="0" r="1" gradientUnits="userSpaceOnUse" gradientTransform="translate(196.75 266.573) rotate(-98.79) scale(103.247 103.247)">
<stop stop-color="#C5A877"/>
<stop offset="0.2" stop-color="#D4B47F"/>
<stop offset="0.54" stop-color="#F3E2CD"/>
<stop offset="0.76" stop-color="#F7F8DE"/>
<stop offset="1" stop-color="#FCFDF9"/>
</radialGradient>
<radialGradient id="paint69_radial_0_9837" cx="0" cy="0" r="1" gradientUnits="userSpaceOnUse" gradientTransform="translate(224.34 167.763) rotate(-98.79) scale(23.9942 23.9942)">
<stop stop-color="#F3E2CD"/>
<stop offset="0.76" stop-color="#F7F8DE"/>
<stop offset="1" stop-color="#FCFDF9"/>
</radialGradient>
<radialGradient id="paint70_radial_0_9837" cx="0" cy="0" r="1" gradientUnits="userSpaceOnUse" gradientTransform="translate(186.482 187.75) rotate(-98.79) scale(55.9746)">
<stop stop-color="#C5A877"/>
<stop offset="0.2" stop-color="#D4B47F"/>
<stop offset="0.54" stop-color="#F3E2CD"/>
<stop offset="0.76" stop-color="#F7F8DE"/>
<stop offset="1" stop-color="#FCFDF9"/>
</radialGradient>
<radialGradient id="paint71_radial_0_9837" cx="0" cy="0" r="1" gradientUnits="userSpaceOnUse" gradientTransform="translate(213.921 260.91) rotate(-98.79) scale(44.2998 44.2998)">
<stop stop-color="#F3E2CD"/>
<stop offset="0.76" stop-color="#F7F8DE"/>
<stop offset="1" stop-color="#FCFDF9"/>
</radialGradient>
<radialGradient id="paint72_radial_0_9837" cx="0" cy="0" r="1" gradientUnits="userSpaceOnUse" gradientTransform="translate(226.462 178.668) rotate(-98.79) scale(17.4406 17.4406)">
<stop stop-color="#F3E2CD"/>
<stop offset="0.76" stop-color="#F7F8DE"/>
<stop offset="1" stop-color="#FCFDF9"/>
</radialGradient>
<radialGradient id="paint73_radial_0_9837" cx="0" cy="0" r="1" gradientUnits="userSpaceOnUse" gradientTransform="translate(234.119 300.838) rotate(-98.79) scale(160.69 160.69)">
<stop stop-color="#C5A877"/>
<stop offset="0.2" stop-color="#D4B47F"/>
<stop offset="0.54" stop-color="#F3E2CD"/>
<stop offset="0.76" stop-color="#F7F8DE"/>
<stop offset="1" stop-color="#FCFDF9"/>
</radialGradient>
<radialGradient id="paint74_radial_0_9837" cx="0" cy="0" r="1" gradientUnits="userSpaceOnUse" gradientTransform="translate(198.856 345.573) rotate(-98.79) scale(210.827 210.827)">
<stop stop-color="#C5A877"/>
<stop offset="0.19" stop-color="#D4B47F"/>
<stop offset="0.54" stop-color="#F3E2CD"/>
<stop offset="0.76" stop-color="#F7F8DE"/>
<stop offset="1" stop-color="#FCFDF9"/>
</radialGradient>
<radialGradient id="paint75_radial_0_9837" cx="0" cy="0" r="1" gradientUnits="userSpaceOnUse" gradientTransform="translate(137.741 196.41) rotate(-98.79) scale(87.5611 87.561)">
<stop stop-color="#C5A877"/>
<stop offset="0.2" stop-color="#D4B47F"/>
<stop offset="0.54" stop-color="#F3E2CD"/>
<stop offset="0.76" stop-color="#F7F8DE"/>
<stop offset="1" stop-color="#FCFDF9"/>
</radialGradient>
<radialGradient id="paint76_radial_0_9837" cx="0" cy="0" r="1" gradientUnits="userSpaceOnUse" gradientTransform="translate(175.343 239.984) rotate(-125.89) scale(106.076 83.8)">
<stop stop-color="#C5A877"/>
<stop offset="0.2" stop-color="#D4B47F"/>
<stop offset="0.54" stop-color="#F3E2CD"/>
<stop offset="0.76" stop-color="#F7F8DE"/>
<stop offset="1" stop-color="#FCFDF9"/>
</radialGradient>
<radialGradient id="paint77_radial_0_9837" cx="0" cy="0" r="1" gradientUnits="userSpaceOnUse" gradientTransform="translate(231.621 211.101) rotate(-98.79) scale(27.0383 27.0383)">
<stop stop-color="#F3E2CD"/>
<stop offset="0.76" stop-color="#F7F8DE"/>
<stop offset="1" stop-color="#FCFDF9"/>
</radialGradient>
<radialGradient id="paint78_radial_0_9837" cx="0" cy="0" r="1" gradientUnits="userSpaceOnUse" gradientTransform="translate(186.036 219.78) rotate(-98.79) scale(42.4734 42.4734)">
<stop stop-color="#F3E2CD"/>
<stop offset="0.76" stop-color="#F7F8DE"/>
<stop offset="1" stop-color="#FCFDF9"/>
</radialGradient>
<radialGradient id="paint79_radial_0_9837" cx="0" cy="0" r="1" gradientUnits="userSpaceOnUse" gradientTransform="translate(228.506 202.668) rotate(-98.79) scale(27.0025 27.0025)">
<stop stop-color="#C5A877"/>
<stop offset="0.2" stop-color="#D4B47F"/>
<stop offset="0.54" stop-color="#F3E2CD"/>
<stop offset="0.76" stop-color="#F7F8DE"/>
<stop offset="1" stop-color="#FCFDF9"/>
</radialGradient>
<radialGradient id="paint80_radial_0_9837" cx="0" cy="0" r="1" gradientUnits="userSpaceOnUse" gradientTransform="translate(142.729 312.073) rotate(-122.15) scale(79.754 79.754)">
<stop stop-color="#334026"/>
<stop offset="0.2" stop-color="#465B48"/>
<stop offset="0.59" stop-color="#647764"/>
<stop offset="0.99" stop-color="#A5B49F"/>
</radialGradient>
<radialGradient id="paint81_radial_0_9837" cx="0" cy="0" r="1" gradientUnits="userSpaceOnUse" gradientTransform="translate(41.1234 226.363) rotate(-6.59946) scale(0.680486 0.680432)">
<stop stop-color="#334026"/>
<stop offset="0.2" stop-color="#465B48"/>
<stop offset="0.59" stop-color="#647764"/>
<stop offset="0.99" stop-color="#A5B49F"/>
</radialGradient>
<radialGradient id="paint82_radial_0_9837" cx="0" cy="0" r="1" gradientUnits="userSpaceOnUse" gradientTransform="translate(159.285 -22.399) rotate(-6.6) scale(267.231 267.231)">
<stop stop-color="#334026"/>
<stop offset="0.2" stop-color="#465B48"/>
<stop offset="0.59" stop-color="#647764"/>
<stop offset="0.99" stop-color="#A5B49F"/>
</radialGradient>
<radialGradient id="paint83_radial_0_9837" cx="0" cy="0" r="1" gradientUnits="userSpaceOnUse" gradientTransform="translate(-22.1526 54.0047) rotate(-6.6) scale(162.409 162.409)">
<stop stop-color="#334026"/>
<stop offset="0.2" stop-color="#465B48"/>
<stop offset="0.59" stop-color="#647764"/>
<stop offset="0.99" stop-color="#A5B49F"/>
</radialGradient>
<radialGradient id="paint84_radial_0_9837" cx="0" cy="0" r="1" gradientUnits="userSpaceOnUse" gradientTransform="translate(66.9653 289.227) rotate(145.35) scale(172.472 172.472)">
<stop stop-color="#77815E"/>
<stop offset="0.2" stop-color="#838D68"/>
<stop offset="1" stop-color="#A19C7C"/>
</radialGradient>
<radialGradient id="paint85_radial_0_9837" cx="0" cy="0" r="1" gradientUnits="userSpaceOnUse" gradientTransform="translate(73.6636 339.797) rotate(145.35) scale(131.861 131.861)">
<stop stop-color="#77815E"/>
<stop offset="0.2" stop-color="#838D68"/>
<stop offset="1" stop-color="#A19C7C"/>
</radialGradient>
<radialGradient id="paint86_radial_0_9837" cx="0" cy="0" r="1" gradientUnits="userSpaceOnUse" gradientTransform="translate(119.759 439.943) rotate(-179.18) scale(189.125 189.125)">
<stop stop-color="#232D22"/>
<stop offset="0.2" stop-color="#39453B"/>
<stop offset="0.59" stop-color="#596456"/>
<stop offset="0.99" stop-color="#8A8D7C"/>
</radialGradient>
<radialGradient id="paint87_radial_0_9837" cx="0" cy="0" r="1" gradientUnits="userSpaceOnUse" gradientTransform="translate(89.54 416.731) rotate(-179.18) scale(144.61 144.61)">
<stop stop-color="#232D22"/>
<stop offset="0.2" stop-color="#39453B"/>
<stop offset="0.59" stop-color="#596456"/>
<stop offset="0.99" stop-color="#8A8D7C"/>
</radialGradient>
<radialGradient id="paint88_radial_0_9837" cx="0" cy="0" r="1" gradientUnits="userSpaceOnUse" gradientTransform="translate(345.223 406.954) rotate(69.6) scale(51.8562 244.761)">
<stop offset="0.02" stop-color="#544C10"/>
<stop offset="0.18" stop-color="#7A724B"/>
<stop offset="0.38" stop-color="#A3A059"/>
<stop offset="0.78" stop-color="#CDCE95"/>
</radialGradient>
<radialGradient id="paint89_radial_0_9837" cx="0" cy="0" r="1" gradientUnits="userSpaceOnUse" gradientTransform="translate(333.736 416.466) rotate(73.37) scale(76.5308 105.613)">
<stop offset="0.02" stop-color="#544C10"/>
<stop offset="0.18" stop-color="#7A724B"/>
<stop offset="0.38" stop-color="#A3A059"/>
<stop offset="0.78" stop-color="#CDCE95"/>
</radialGradient>
<radialGradient id="paint90_radial_0_9837" cx="0" cy="0" r="1" gradientUnits="userSpaceOnUse" gradientTransform="translate(171.38 358.626) rotate(24.4) scale(51.8562 244.761)">
<stop offset="0.02" stop-color="#544C10"/>
<stop offset="0.18" stop-color="#7A724B"/>
<stop offset="0.38" stop-color="#A3A059"/>
<stop offset="0.78" stop-color="#CDCE95"/>
</radialGradient>
<radialGradient id="paint91_radial_0_9837" cx="0" cy="0" r="1" gradientUnits="userSpaceOnUse" gradientTransform="translate(144.664 426.423) rotate(24.4) scale(50.2088 77.3215)">
<stop offset="0.02" stop-color="#544C10"/>
<stop offset="0.18" stop-color="#7A724B"/>
<stop offset="0.38" stop-color="#A3A059"/>
<stop offset="0.78" stop-color="#CDCE95"/>
</radialGradient>
<radialGradient id="paint92_radial_0_9837" cx="0" cy="0" r="1" gradientUnits="userSpaceOnUse" gradientTransform="translate(312.393 475.756) rotate(81.62) scale(51.8563 244.761)">
<stop offset="0.02" stop-color="#544C10"/>
<stop offset="0.18" stop-color="#7A724B"/>
<stop offset="0.38" stop-color="#A3A059"/>
<stop offset="0.78" stop-color="#CDCE95"/>
</radialGradient>
<radialGradient id="paint93_radial_0_9837" cx="0" cy="0" r="1" gradientUnits="userSpaceOnUse" gradientTransform="translate(-64.1715 -1322.36) rotate(79.65) scale(67.0979 107.357)">
<stop offset="0.02" stop-color="#544C10"/>
<stop offset="0.18" stop-color="#7A724B"/>
<stop offset="0.38" stop-color="#A3A059"/>
<stop offset="0.78" stop-color="#CDCE95"/>
</radialGradient>
<radialGradient id="paint94_radial_0_9837" cx="0" cy="0" r="1" gradientUnits="userSpaceOnUse" gradientTransform="translate(186.156 386.399) rotate(-119.6) scale(51.8562 244.761)">
<stop offset="0.02" stop-color="#544C10"/>
<stop offset="0.18" stop-color="#7A724B"/>
<stop offset="0.38" stop-color="#A3A059"/>
<stop offset="0.78" stop-color="#CDCE95"/>
</radialGradient>
<radialGradient id="paint95_radial_0_9837" cx="0" cy="0" r="1" gradientUnits="userSpaceOnUse" gradientTransform="translate(-80.716 -411.966) rotate(-117.78) scale(18.0752 28.1169)">
<stop offset="0.02" stop-color="#544C10"/>
<stop offset="0.18" stop-color="#7A724B"/>
<stop offset="0.38" stop-color="#A3A059"/>
<stop offset="0.78" stop-color="#CDCE95"/>
</radialGradient>
<linearGradient id="paint96_linear_0_9837" x1="331.273" y1="521.445" x2="317.517" y2="491.783" gradientUnits="userSpaceOnUse">
<stop stop-color="#CCCBC6"/>
<stop offset="0.39" stop-color="#ACA499"/>
<stop offset="1" stop-color="#A69372"/>
</linearGradient>
<radialGradient id="paint97_radial_0_9837" cx="0" cy="0" r="1" gradientUnits="userSpaceOnUse" gradientTransform="translate(382.654 407.299) rotate(155.26) scale(102.924 66.9009)">
<stop stop-color="#A5B49F"/>
<stop offset="0.14" stop-color="#9FAE99"/>
<stop offset="0.32" stop-color="#8E9F8A"/>
<stop offset="0.52" stop-color="#748672"/>
<stop offset="0.62" stop-color="#647764"/>
<stop offset="0.99" stop-color="#465B48"/>
</radialGradient>
<radialGradient id="paint98_radial_0_9837" cx="0" cy="0" r="1" gradientUnits="userSpaceOnUse" gradientTransform="translate(455.595 546.639) rotate(147.57) scale(124.627 67.2984)">
<stop stop-color="#A5B49F"/>
<stop offset="0.14" stop-color="#9FAE99"/>
<stop offset="0.32" stop-color="#8E9F8A"/>
<stop offset="0.52" stop-color="#748672"/>
<stop offset="0.62" stop-color="#647764"/>
<stop offset="0.99" stop-color="#465B48"/>
</radialGradient>
<radialGradient id="paint99_radial_0_9837" cx="0" cy="0" r="1" gradientUnits="userSpaceOnUse" gradientTransform="translate(325.935 398.035) rotate(147.57) scale(40.826 26.5369)">
<stop stop-color="#EAEBEB"/>
<stop offset="0.62" stop-color="#B3CABA"/>
<stop offset="0.99" stop-color="#749D8D"/>
</radialGradient>
<linearGradient id="paint100_linear_0_9837" x1="157.764" y1="657.681" x2="-298.069" y2="478.995" gradientUnits="userSpaceOnUse">
<stop stop-color="#CCCBC6"/>
<stop offset="0.39" stop-color="#ACA499"/>
<stop offset="1" stop-color="#A69372"/>
</linearGradient>
<linearGradient id="paint101_linear_0_9837" x1="199.447" y1="551.411" x2="-256.385" y2="372.724" gradientUnits="userSpaceOnUse">
<stop stop-color="#CCCBC6"/>
<stop offset="0.39" stop-color="#ACA499"/>
<stop offset="1" stop-color="#A69372"/>
</linearGradient>
<linearGradient id="paint102_linear_0_9837" x1="201.139" y1="547.082" x2="-254.694" y2="368.396" gradientUnits="userSpaceOnUse">
<stop stop-color="#CCCBC6"/>
<stop offset="0.39" stop-color="#ACA499"/>
<stop offset="1" stop-color="#A69372"/>
</linearGradient>
<linearGradient id="paint103_linear_0_9837" x1="186.549" y1="584.275" x2="-269.284" y2="405.589" gradientUnits="userSpaceOnUse">
<stop stop-color="#CCCBC6"/>
<stop offset="0.39" stop-color="#ACA499"/>
<stop offset="1" stop-color="#A69372"/>
</linearGradient>
<radialGradient id="paint104_radial_0_9837" cx="0" cy="0" r="1" gradientUnits="userSpaceOnUse" gradientTransform="translate(105.609 700.714) rotate(109.41) scale(186.116 186.116)">
<stop stop-color="#A5B49F"/>
<stop offset="0.14" stop-color="#9FAE99"/>
<stop offset="0.32" stop-color="#8E9F8A"/>
<stop offset="0.52" stop-color="#748672"/>
<stop offset="0.62" stop-color="#647764"/>
<stop offset="0.99" stop-color="#465B48"/>
</radialGradient>
<radialGradient id="paint105_radial_0_9837" cx="0" cy="0" r="1" gradientUnits="userSpaceOnUse" gradientTransform="translate(77.762 697.092) rotate(109.41) scale(175.802)">
<stop stop-color="#A5B49F"/>
<stop offset="0.14" stop-color="#9FAE99"/>
<stop offset="0.32" stop-color="#8E9F8A"/>
<stop offset="0.52" stop-color="#748672"/>
<stop offset="0.62" stop-color="#647764"/>
<stop offset="0.99" stop-color="#465B48"/>
</radialGradient>
<radialGradient id="paint106_radial_0_9837" cx="0" cy="0" r="1" gradientUnits="userSpaceOnUse" gradientTransform="translate(54.2029 650.005) rotate(135.94) scale(52.4292 52.4292)">
<stop stop-color="#EAEBEB"/>
<stop offset="0.62" stop-color="#B3CABA"/>
<stop offset="0.99" stop-color="#749D8D"/>
</radialGradient>
<radialGradient id="paint107_radial_0_9837" cx="0" cy="0" r="1" gradientUnits="userSpaceOnUse" gradientTransform="translate(67.6676 415.602) rotate(-1.91) scale(197.147 197.147)">
<stop stop-color="#A5B49F"/>
<stop offset="0.14" stop-color="#9FAE99"/>
<stop offset="0.32" stop-color="#8E9F8A"/>
<stop offset="0.52" stop-color="#748672"/>
<stop offset="0.62" stop-color="#647764"/>
<stop offset="0.99" stop-color="#465B48"/>
</radialGradient>
<radialGradient id="paint108_radial_0_9837" cx="0" cy="0" r="1" gradientUnits="userSpaceOnUse" gradientTransform="translate(73.4321 426.195) rotate(-1.91) scale(156.75 156.75)">
<stop stop-color="#A5B49F"/>
<stop offset="0.14" stop-color="#9FAE99"/>
<stop offset="0.32" stop-color="#8E9F8A"/>
<stop offset="0.52" stop-color="#748672"/>
<stop offset="0.62" stop-color="#647764"/>
<stop offset="0.99" stop-color="#465B48"/>
</radialGradient>
<radialGradient id="paint109_radial_0_9837" cx="0" cy="0" r="1" gradientUnits="userSpaceOnUse" gradientTransform="translate(13.9877 446.024) rotate(135.94) scale(49.2061)">
<stop stop-color="#EAEBEB"/>
<stop offset="0.62" stop-color="#B3CABA"/>
<stop offset="0.99" stop-color="#749D8D"/>
</radialGradient>
<radialGradient id="paint110_radial_0_9837" cx="0" cy="0" r="1" gradientUnits="userSpaceOnUse" gradientTransform="translate(138.112 499.305) rotate(109.41) scale(135.908 135.908)">
<stop stop-color="#A5B49F"/>
<stop offset="0.14" stop-color="#9FAE99"/>
<stop offset="0.32" stop-color="#8E9F8A"/>
<stop offset="0.52" stop-color="#748672"/>
<stop offset="0.62" stop-color="#647764"/>
<stop offset="0.99" stop-color="#465B48"/>
</radialGradient>
<radialGradient id="paint111_radial_0_9837" cx="0" cy="0" r="1" gradientUnits="userSpaceOnUse" gradientTransform="translate(124.721 466.83) rotate(109.41) scale(95.2965 95.2965)">
<stop stop-color="#A5B49F"/>
<stop offset="0.14" stop-color="#9FAE99"/>
<stop offset="0.32" stop-color="#8E9F8A"/>
<stop offset="0.52" stop-color="#748672"/>
<stop offset="0.62" stop-color="#647764"/>
<stop offset="0.99" stop-color="#465B48"/>
</radialGradient>
<radialGradient id="paint112_radial_0_9837" cx="0" cy="0" r="1" gradientUnits="userSpaceOnUse" gradientTransform="translate(108.559 496.836) rotate(135.94) scale(43.0464)">
<stop stop-color="#EAEBEB"/>
<stop offset="0.62" stop-color="#B3CABA"/>
<stop offset="0.99" stop-color="#749D8D"/>
</radialGradient>
<radialGradient id="paint113_radial_0_9837" cx="0" cy="0" r="1" gradientUnits="userSpaceOnUse" gradientTransform="translate(256.008 554.592) rotate(109.41) scale(117.357 117.357)">
<stop stop-color="#A5B49F"/>
<stop offset="0.14" stop-color="#9FAE99"/>
<stop offset="0.32" stop-color="#8E9F8A"/>
<stop offset="0.52" stop-color="#748672"/>
<stop offset="0.62" stop-color="#647764"/>
<stop offset="0.99" stop-color="#465B48"/>
</radialGradient>
<radialGradient id="paint114_radial_0_9837" cx="0" cy="0" r="1" gradientUnits="userSpaceOnUse" gradientTransform="translate(261.243 589.737) rotate(109.41) scale(106.935 106.935)">
<stop stop-color="#A5B49F"/>
<stop offset="0.14" stop-color="#9FAE99"/>
<stop offset="0.32" stop-color="#8E9F8A"/>
<stop offset="0.52" stop-color="#748672"/>
<stop offset="0.62" stop-color="#647764"/>
<stop offset="0.99" stop-color="#465B48"/>
</radialGradient>
<radialGradient id="paint115_radial_0_9837" cx="0" cy="0" r="1" gradientUnits="userSpaceOnUse" gradientTransform="translate(221.282 558.938) rotate(135.94) scale(58.0876 58.0876)">
<stop stop-color="#EAEBEB"/>
<stop offset="0.62" stop-color="#B3CABA"/>
<stop offset="0.99" stop-color="#749D8D"/>
</radialGradient>
</defs>
</svg>
